<?xml version="1.0" encoding="utf-8"?>
<!-- Generator: Adobe Illustrator 21.1.0, SVG Export Plug-In . SVG Version: 6.00 Build 0)  -->
<svg version="1.1" id="Layer_1" xmlns="http://www.w3.org/2000/svg" xmlns:xlink="http://www.w3.org/1999/xlink" x="0px" y="0px"
	 viewBox="0 0 680 680" style="enable-background:new 0 0 680 680;" xml:space="preserve">
<style type="text/css">
	.st0{fill:#92BE4F;}
	.st1{fill:none;}
	.st2{fill:#2E8F97;}
	.st3{fill:#F15B40;}
	.st4{fill:#FFFFFF;}
	.st5{font-family:'Uniform-Bold';}
	.st6{font-size:30px;}
	.st7{font-family:'Uniform-Medium';}
	.st8{font-size:22.5px;}
	.st9{fill:none;stroke:#58595B;stroke-width:5;stroke-miterlimit:10;}
	.st10{fill:#58595B;}
	.st11{font-size:75px;}
	.st12{letter-spacing:1;}
</style>
<title>cbt</title>
<g>
	<circle class="st0" cx="145.1" cy="483.8" r="143.9"/>
	<polygon class="st1" points="340,146.2 145.1,483.8 534.9,483.8 	"/>
	<circle class="st2" cx="340" cy="146.2" r="143.9"/>
	<circle class="st3" cx="534.9" cy="483.8" r="143.9"/>
	<text transform="matrix(1 0 0 1 251.95 126.58)" class="st4 st5 st6">THOUGHTS</text>
	<text transform="matrix(1 0 0 1 220.07 156.58)" class="st4 st7 st8">Wh</text>
	<text transform="matrix(1 0 0 1 256.3 156.58)" class="st4 st7 st8">a</text>
	<text transform="matrix(1 0 0 1 268.56 156.58)" class="st4 st7 st8">t </text>
	<text transform="matrix(1 0 0 1 284.35 156.58)" class="st4 st7 st8">w</text>
	<text transform="matrix(1 0 0 1 301.57 156.58)" class="st4 st7 st8">e think </text>
	<text transform="matrix(1 0 0 1 383.04 156.58)" class="st4 st7 st8">a</text>
	<text transform="matrix(1 0 0 1 395.64 156.58)" class="st4 st7 st8">ffects</text>
	<text transform="matrix(1 0 0 1 230.7 186.58)" class="st4 st7 st8">h</text>
	<text transform="matrix(1 0 0 1 244.54 186.58)" class="st4 st7 st8">o</text>
	<text transform="matrix(1 0 0 1 258.22 186.58)" class="st4 st7 st8">w </text>
	<text transform="matrix(1 0 0 1 281.78 186.58)" class="st4 st7 st8">w</text>
	<text transform="matrix(1 0 0 1 298.99 186.58)" class="st4 st7 st8">e </text>
	<text transform="matrix(1 0 0 1 318.5 186.58)" class="st4 st7 st8">f</text>
	<text transform="matrix(1 0 0 1 327.61 186.58)" class="st4 st7 st8">eel and act</text>
	<text transform="matrix(1 0 0 1 67.11 464.08)" class="st4 st5 st6">FEELINGS</text>
	<text transform="matrix(1 0 0 1 32.13 494.08)" class="st4 st7 st8">Wh</text>
	<text transform="matrix(1 0 0 1 68.35 494.08)" class="st4 st7 st8">a</text>
	<text transform="matrix(1 0 0 1 80.62 494.08)" class="st4 st7 st8">t </text>
	<text transform="matrix(1 0 0 1 96.41 494.08)" class="st4 st7 st8">w</text>
	<text transform="matrix(1 0 0 1 113.62 494.08)" class="st4 st7 st8">e </text>
	<text transform="matrix(1 0 0 1 133.13 494.08)" class="st4 st7 st8">f</text>
	<text transform="matrix(1 0 0 1 142.24 494.08)" class="st4 st7 st8">eel </text>
	<text transform="matrix(1 0 0 1 181.26 494.08)" class="st4 st7 st8">a</text>
	<text transform="matrix(1 0 0 1 193.86 494.08)" class="st4 st7 st8">ffects</text>
	<text transform="matrix(1 0 0 1 28.92 524.08)" class="st4 st7 st8">h</text>
	<text transform="matrix(1 0 0 1 42.76 524.08)" class="st4 st7 st8">o</text>
	<text transform="matrix(1 0 0 1 56.44 524.08)" class="st4 st7 st8">w </text>
	<text transform="matrix(1 0 0 1 80 524.08)" class="st4 st7 st8">w</text>
	<text transform="matrix(1 0 0 1 97.21 524.08)" class="st4 st7 st8">e think and act</text>
	<text transform="matrix(1 0 0 1 443.18 464.08)" class="st4 st5 st6">BEH</text>
	<text transform="matrix(1 0 0 1 508.73 464.08)" class="st4 st5 st6">A</text>
	<text transform="matrix(1 0 0 1 528.38 464.08)" class="st4 st5 st6">VIORS</text>
	<text transform="matrix(1 0 0 1 428.57 494.08)" class="st4 st7 st8">Wh</text>
	<text transform="matrix(1 0 0 1 464.79 494.08)" class="st4 st7 st8">a</text>
	<text transform="matrix(1 0 0 1 477.05 494.08)" class="st4 st7 st8">t </text>
	<text transform="matrix(1 0 0 1 492.85 494.08)" class="st4 st7 st8">w</text>
	<text transform="matrix(1 0 0 1 510.06 494.08)" class="st4 st7 st8">e do </text>
	<text transform="matrix(1 0 0 1 564.26 494.08)" class="st4 st7 st8">a</text>
	<text transform="matrix(1 0 0 1 576.86 494.08)" class="st4 st7 st8">ffects</text>
	<text transform="matrix(1 0 0 1 414.93 524.08)" class="st4 st7 st8">h</text>
	<text transform="matrix(1 0 0 1 428.77 524.08)" class="st4 st7 st8">o</text>
	<text transform="matrix(1 0 0 1 442.45 524.08)" class="st4 st7 st8">w </text>
	<text transform="matrix(1 0 0 1 466.01 524.08)" class="st4 st7 st8">w</text>
	<text transform="matrix(1 0 0 1 483.22 524.08)" class="st4 st7 st8">e think and </text>
	<text transform="matrix(1 0 0 1 611.8 524.08)" class="st4 st7 st8">f</text>
	<text transform="matrix(1 0 0 1 620.92 524.08)" class="st4 st7 st8">eel</text>
	<path class="st9" d="M273.8,576.1c43.1,13.9,89.4,13.9,132.5,0"/>
	<path class="st10" d="M259.6,571c5.8,4.9,12.6,12,16.2,18.4l-0.1-12.6l8-9.8C277,569.6,267.1,570.9,259.6,571z"/>
	<path class="st10" d="M420.4,571c-5.8,4.9-12.6,12-16.2,18.4l0.1-12.6l-8-9.8C403,569.6,412.9,570.9,420.4,571z"/>
	<path class="st9" d="M550.5,326.2c-9.5-44.2-32.7-84.4-66.2-114.7"/>
	<path class="st10" d="M553.2,341c1.3-7.5,4.1-16.9,7.8-23.2l-10.9,6.4l-12.5-2.1C543.3,326.7,549.3,334.5,553.2,341z"/>
	<path class="st10" d="M472.8,201.7c7.1,2.6,16.7,4.9,24,4.8l-11,6.3l-4.4,11.8C480.2,217.5,476.5,208.3,472.8,201.7z"/>
	<path class="st9" d="M195.7,211.5c-33.5,30.4-56.7,70.5-66.2,114.7"/>
	<path class="st10" d="M207.2,201.7c-7.1,2.6-16.7,4.9-24,4.8l11,6.3l4.4,11.8C199.8,217.5,203.5,208.3,207.2,201.7z"/>
	<path class="st10" d="M126.8,341c-1.3-7.5-4.1-16.9-7.8-23.2l10.9,6.4l12.5-2.1C136.7,326.7,130.7,334.5,126.8,341z"/>
	<text transform="matrix(1 0 0 1 262.56 383.95)" class="st10 st5 st11 st12">CBT</text>
	<circle class="st1" cx="340" cy="371.2" r="215.3"/>
</g>
</svg>
