<svg id="Layer_1" data-name="Layer 1" xmlns="http://www.w3.org/2000/svg" viewBox="0 0 1224 792"><defs><style>.cls-1{font-size:24px;font-family:Uniform-Medium, Uniform;}.cls-1,.cls-9{fill:#58595b;}.cls-2{letter-spacing:-0.02em;}.cls-3{letter-spacing:-0.01em;}.cls-4{letter-spacing:-0.02em;}.cls-5{letter-spacing:-0.01em;}.cls-6{letter-spacing:0em;}.cls-7{letter-spacing:-0.03em;}.cls-11,.cls-27,.cls-8{fill:none;stroke-width:3px;}.cls-8{stroke:#58595b;stroke-miterlimit:10;}.cls-10{letter-spacing:-0.06em;}.cls-11{stroke:#f0b84d;}.cls-12{letter-spacing:-0.01em;}.cls-13{letter-spacing:-0.02em;}.cls-14{letter-spacing:0em;}.cls-15{letter-spacing:-0.01em;}.cls-16{letter-spacing:0.02em;}.cls-17{letter-spacing:-0.05em;}.cls-18{letter-spacing:-0.03em;}.cls-19{letter-spacing:0em;}.cls-20{letter-spacing:-0.05em;}.cls-21{letter-spacing:-0.08em;}.cls-22{letter-spacing:-0.12em;}.cls-23{letter-spacing:-0.04em;}.cls-24{letter-spacing:-0.07em;}.cls-25{letter-spacing:-0.04em;}.cls-26{letter-spacing:-0.06em;}.cls-27{stroke:#2e8f97;}</style></defs><title>userflow_lite</title><text class="cls-1" transform="translate(111.87 600)">c<tspan class="cls-2" x="13.01" y="0">r</tspan><tspan class="cls-3" x="22.15" y="0">e</tspan><tspan class="cls-4" x="36.43" y="0">a</tspan><tspan class="cls-5" x="49.51" y="0">t</tspan><tspan class="cls-6" x="59.83" y="0">e a</tspan><tspan class="cls-7" x="94.2" y="0">cc</tspan><tspan x="118.77" y="0">ou</tspan><tspan class="cls-2" x="148.61" y="0">n</tspan><tspan class="cls-6" x="162.89" y="0">t</tspan></text><line class="cls-8" x1="144.09" y1="467.33" x2="144.09" y2="566.1"/><polygon class="cls-9" points="138.53 561.88 144.09 564.24 149.64 561.88 144.09 575.05 138.53 561.88"/><line class="cls-8" x1="288.34" y1="396" x2="392.61" y2="396"/><polygon class="cls-9" points="388.4 401.56 390.76 396 388.4 390.44 401.56 396 388.4 401.56"/><text class="cls-1" transform="translate(81.91 403.12)">Fir<tspan class="cls-3" x="30.55" y="0">s</tspan><tspan x="41.28" y="0">t tim</tspan><tspan class="cls-10" x="98.13" y="0">e</tspan><tspan x="111.21" y="0">?</tspan></text><text class="cls-1" transform="translate(81.91 403.12)">Fir<tspan class="cls-3" x="30.55" y="0">s</tspan><tspan x="41.28" y="0">t tim</tspan><tspan class="cls-10" x="98.13" y="0">e</tspan><tspan x="111.21" y="0">?</tspan></text><polygon class="cls-11" points="144 452.07 245.82 395.5 144 338.93 42.18 395.5 144 452.07"/><text class="cls-1" transform="translate(81.16 215.84)">Open App<tspan x="0" y="24">(manually)</tspan></text><text class="cls-1" transform="translate(168 528)"><tspan class="cls-4">y</tspan><tspan x="12.24" y="0">es</tspan></text><text class="cls-1" transform="translate(312 384.84)">no</text><polyline class="cls-8" points="300 588 432 588 432 428.95"/><polygon class="cls-9" points="437.56 433.17 432 430.81 426.44 433.17 432 420 437.56 433.17"/><text class="cls-1" transform="translate(421.35 407.12)"><tspan class="cls-12">L</tspan><tspan x="13.92" y="0">ogin</tspan></text><text class="cls-1" transform="translate(386.35 156.88)">Vi<tspan class="cls-13" x="23.09" y="0">e</tspan><tspan x="37.13" y="0">w P</tspan><tspan class="cls-4" x="78.58" y="0">r</tspan><tspan x="87.72" y="0">og</tspan><tspan class="cls-13" x="118.44" y="0">r</tspan><tspan class="cls-14" x="127.58" y="0">e</tspan><tspan class="cls-15" x="142.1" y="0">s</tspan><tspan x="152.95" y="0">s</tspan></text><text class="cls-1" transform="translate(612 407.84)">N<tspan class="cls-4" x="18.96" y="0">e</tspan><tspan x="33" y="0">w e</tspan><tspan class="cls-4" x="72.65" y="0">n</tspan><tspan x="86.93" y="0">t</tspan><tspan class="cls-16" x="97.49" y="0">r</tspan><tspan x="107.59" y="0">y</tspan></text><text class="cls-1" transform="translate(612 552)">Unjournaled<tspan x="0" y="24">triggers (inb</tspan><tspan class="cls-17" x="146.16" y="24">o</tspan><tspan x="160.03" y="24">x)</tspan></text><text class="cls-1" transform="translate(612 263.84)">Journal Hi<tspan class="cls-5" x="116.59" y="0">st</tspan><tspan x="137.64" y="0">o</tspan><tspan class="cls-16" x="152.71" y="0">r</tspan><tspan x="162.81" y="0">y</tspan><tspan class="cls-13" x="0" y="24">(c</tspan><tspan class="cls-14" x="22.34" y="24">alenda</tspan><tspan class="cls-18" x="100.68" y="24">r</tspan><tspan x="109.58" y="24">)</tspan></text><text class="cls-1" transform="translate(896 564)">Vi<tspan class="cls-4" x="23.09" y="0">e</tspan><tspan x="37.13" y="0">w trigger i</tspan><tspan class="cls-19" x="156.74" y="0">n</tspan><tspan class="cls-2" x="171.38" y="0">f</tspan><tspan x="181.1" y="0">o (ma</tspan><tspan class="cls-4" x="249.48" y="0">p</tspan><tspan x="264.64" y="0">)</tspan></text><line class="cls-8" x1="505.57" y1="396" x2="590.32" y2="396"/><polygon class="cls-9" points="586.11 401.56 588.47 396 586.11 390.44 599.27 396 586.11 401.56"/><text class="cls-1" transform="translate(696 47.84)">Mood t<tspan class="cls-18" x="84" y="0">r</tspan><tspan x="92.9" y="0">ac</tspan><tspan class="cls-20" x="119.47" y="0">k</tspan><tspan class="cls-6" x="131.71" y="0">er</tspan></text><text class="cls-1" transform="translate(696 95.84)"><tspan class="cls-21">T</tspan><tspan x="12.24" y="0">ag Map</tspan></text><text class="cls-1" transform="translate(696 143.84)"><tspan class="cls-4">S</tspan><tspan x="13.32" y="0">t</tspan><tspan class="cls-4" x="23.88" y="0">a</tspan><tspan x="36.96" y="0">ts</tspan></text><text class="cls-1" transform="translate(696 191.84)">Jelly Badge<tspan class="cls-4" x="133.51" y="0">s</tspan><tspan class="cls-22" x="144" y="0">/</tspan><tspan class="cls-23" x="153.24" y="0">A</tspan><tspan class="cls-2" x="169.32" y="0">w</tspan><tspan x="187.68" y="0">a</tspan><tspan class="cls-4" x="201.24" y="0">r</tspan><tspan x="210.38" y="0">ds</tspan></text><text class="cls-1" transform="translate(896 360.84)"><tspan class="cls-24">V</tspan><tspan x="15.12" y="0">oi</tspan><tspan class="cls-7" x="36.48" y="0">c</tspan><tspan x="48.77" y="0">e </tspan><tspan class="cls-2" x="69.58" y="0">r</tspan><tspan class="cls-6" x="78.72" y="0">e</tspan><tspan class="cls-7" x="93.24" y="0">c</tspan><tspan x="105.53" y="0">o</tspan><tspan class="cls-2" x="120.6" y="0">r</tspan><tspan class="cls-6" x="129.74" y="0">ding</tspan></text><text class="cls-1" transform="translate(896 408.34)"><tspan class="cls-21">T</tspan><tspan class="cls-25" x="12.24" y="0">e</tspan><tspan x="25.8" y="0">xt</tspan><tspan class="cls-26" x="49.8" y="0">/</tspan><tspan class="cls-3" x="60.48" y="0">t</tspan><tspan x="70.8" y="0">empl</tspan><tspan class="cls-4" x="130.42" y="0">a</tspan><tspan class="cls-5" x="143.5" y="0">t</tspan><tspan class="cls-6" x="153.81" y="0">e</tspan></text><text class="cls-1" transform="translate(896 455.84)">Mindfulne<tspan class="cls-19" x="118.58" y="0">s</tspan><tspan x="129.43" y="0">s quiz</tspan></text><line class="cls-8" x1="752" y1="396" x2="879.05" y2="396"/><polygon class="cls-9" points="874.83 401.56 877.19 396 874.83 390.44 888 396 874.83 401.56"/><polyline class="cls-8" points="788 396 788 444 879.04 444"/><polygon class="cls-9" points="874.83 449.56 877.19 444 874.83 438.44 888 444 874.83 449.56"/><polyline class="cls-8" points="788 396 788 348 879.04 348"/><polygon class="cls-9" points="874.83 353.56 877.19 348 874.83 342.44 888 348 874.83 353.56"/><line class="cls-8" x1="456" y1="420" x2="456" y2="610.91"/><polygon class="cls-9" points="450.44 606.7 456 609.06 461.56 606.7 456 619.87 450.44 606.7"/><text class="cls-1" transform="translate(410.41 646.84)">Settings</text><text class="cls-1" transform="translate(648 671.84)">App<tspan class="cls-5" x="48.34" y="0">e</tspan><tspan x="62.62" y="0">a</tspan><tspan class="cls-7" x="76.17" y="0">r</tspan><tspan x="85.08" y="0">an</tspan><tspan class="cls-7" x="113.4" y="0">c</tspan><tspan x="125.69" y="0">e</tspan></text><text class="cls-1" transform="translate(648 719.84)">N<tspan class="cls-4" x="18.96" y="0">o</tspan><tspan x="33.55" y="0">tifi</tspan><tspan class="cls-4" x="66.89" y="0">ca</tspan><tspan x="92.5" y="0">tions</tspan></text><text class="cls-1" transform="translate(648 767.84)">Me<tspan class="cls-4" x="35.88" y="0">n</tspan><tspan x="50.16" y="0">tal H</tspan><tspan class="cls-3" x="105.33" y="0">e</tspan><tspan x="119.62" y="0">alth tailoring</tspan></text><polyline class="cls-8" points="456 660 456 708 629.04 708"/><polygon class="cls-9" points="624.83 713.55 627.19 708 624.83 702.45 638 708 624.83 713.55"/><polyline class="cls-8" points="542 708 542 660 629.04 660"/><polygon class="cls-9" points="624.83 665.55 627.19 660 624.83 654.45 638 660 624.83 665.55"/><polyline class="cls-8" points="542 708 542 756 629.04 756"/><polygon class="cls-9" points="624.83 761.55 627.19 756 624.83 750.45 638 756 624.83 761.55"/><line class="cls-8" x1="456" y1="372" x2="456" y2="181.09"/><polygon class="cls-9" points="461.56 185.3 456 182.94 450.44 185.3 456 172.13 461.56 185.3"/><polyline class="cls-8" points="456 132 456 84 674.54 84"/><polygon class="cls-9" points="670.33 89.56 672.69 84 670.33 78.44 683.5 84 670.33 89.56"/><polyline class="cls-8" points="587.5 84 587.5 132 674.54 132"/><polygon class="cls-9" points="670.33 137.56 672.69 132 670.33 126.44 683.5 132 670.33 137.56"/><polyline class="cls-8" points="587.5 132 587.5 180 674.54 180"/><polygon class="cls-9" points="670.33 185.56 672.69 180 670.33 174.44 683.5 180 670.33 185.56"/><polyline class="cls-8" points="587.5 84 587.5 36 674.54 36"/><polygon class="cls-9" points="670.33 41.55 672.69 36 670.33 30.45 683.5 36 670.33 41.55"/><path class="cls-27" d="M201,262a42,42,0,0,0,0-84H87a42,42,0,0,0,0,84Z"/><line class="cls-8" x1="144" y1="262" x2="144" y2="313.05"/><polygon class="cls-9" points="138.44 308.83 144 311.19 149.56 308.83 144 322 138.44 308.83"/><line class="cls-8" x1="788" y1="276" x2="879.05" y2="276"/><polygon class="cls-9" points="874.83 281.56 877.19 276 874.83 270.44 888 276 874.83 281.56"/><text class="cls-1" transform="translate(900 288)">Vi<tspan class="cls-4" x="23.09" y="0">e</tspan><tspan x="37.13" y="0">w e</tspan><tspan class="cls-4" x="76.78" y="0">n</tspan><tspan x="91.06" y="0">t</tspan><tspan class="cls-16" x="101.62" y="0">r</tspan><tspan x="111.72" y="0">y</tspan></text><polyline class="cls-8" points="480 372 480 276 591.04 276"/><polygon class="cls-9" points="586.83 281.56 589.19 276 586.83 270.44 600 276 586.83 281.56"/><line class="cls-8" x1="672" y1="300" x2="672" y2="375.05"/><polygon class="cls-9" points="666.45 370.83 672 373.19 677.55 370.83 672 384 666.45 370.83"/><polyline class="cls-8" points="480 420 480 552 591.04 552"/><polygon class="cls-9" points="586.83 557.55 589.19 552 586.83 546.45 600 552 586.83 557.55"/><line class="cls-8" x1="804" y1="552" x2="879.05" y2="552"/><polygon class="cls-9" points="874.83 557.55 877.19 552 874.83 546.45 888 552 874.83 557.55"/><polyline class="cls-8" points="1008 540 1008 492 672 492 672 428.95"/><polygon class="cls-9" points="677.55 433.17 672 430.81 666.45 433.17 672 420 677.55 433.17"/></svg>