<svg id="Layer_1" data-name="Layer 1" xmlns="http://www.w3.org/2000/svg" xmlns:xlink="http://www.w3.org/1999/xlink" viewBox="0 0 1224 792"><defs><style>.cls-1,.cls-2,.cls-5{fill:none;}.cls-2,.cls-6{stroke:#000;}.cls-14,.cls-2,.cls-6{stroke-miterlimit:10;}.cls-3{clip-path:url(#clip-path);}.cls-4{fill:#abe0f9;}.cls-5{stroke:#00adee;}.cls-7{isolation:isolate;font-size:13px;fill:#333;font-family:Uniform, Uniform;}.cls-8{letter-spacing:-0.02em;}.cls-9{letter-spacing:-0.04em;}.cls-10{letter-spacing:0.03em;}.cls-11{letter-spacing:0em;}.cls-12{fill:#fff;}.cls-13{letter-spacing:-0.12em;}.cls-14,.cls-19{fill:#f5f5f5;stroke:#666;}.cls-15{letter-spacing:-0.01em;}.cls-16{letter-spacing:0.05em;}.cls-17{letter-spacing:-0.12em;}.cls-18{letter-spacing:-0.02em;}.cls-20{letter-spacing:-0.02em;}.cls-21{letter-spacing:-0.02em;}.cls-22{letter-spacing:-0.03em;}.cls-23{letter-spacing:0.01em;}.cls-24{letter-spacing:-0.03em;}.cls-25{letter-spacing:-0.01em;}.cls-26{letter-spacing:0em;}.cls-27{letter-spacing:-0.05em;}</style><clipPath id="clip-path"><rect class="cls-1" x="49.6" y="248.5" width="129.8" height="59.07"/></clipPath></defs><title>BallotBoxFlow</title><path class="cls-2" d="M175,278.93h83.35"/><g class="cls-3"><path class="cls-4" d="M82.35,249h64.3c17.76,0,32.15,13,32.15,29s-14.39,29-32.15,29H82.35c-17.76,0-32.15-13-32.15-29s14.39-29,32.15-29"/><path class="cls-5" d="M82.35,249h64.3c17.76,0,32.15,13,32.15,29s-14.39,29-32.15,29H82.35c-17.76,0-32.15-13-32.15-29S64.59,249,82.35,249Z"/></g><path class="cls-6" d="M263.6,278.93l-7,3.5,1.75-3.5-1.75-3.5Z"/><text class="cls-7" transform="translate(63.72 284)">Open &quot;Ball<tspan class="cls-8" x="65.19" y="0">o</tspan><tspan x="73.08" y="0">tB</tspan><tspan class="cls-9" x="87.64" y="0">o</tspan><tspan class="cls-10" x="95.28" y="0">x</tspan><tspan class="cls-11" x="102.71" y="0">&quot;</tspan></text><path class="cls-2" d="M325,338.5V462.13"/><path class="cls-6" d="M325,467.38l-3.5-7,3.5,1.75,3.5-1.75Z"/><rect class="cls-12" x="316.19" y="377.95" width="22.42" height="17.81"/><text class="cls-7" transform="translate(318.19 391)">No</text><path class="cls-2" d="M384.57,278.93h83.78"/><path class="cls-6" d="M473.6,278.93l-7,3.5,1.75-3.5-1.75-3.5Z"/><rect class="cls-12" x="410.9" y="268.95" width="24.89" height="17.81"/><text class="cls-7" transform="translate(412.9 282)"><tspan class="cls-13">Y</tspan><tspan x="7.15" y="0">es</tspan></text><path class="cls-14" d="M325,218.5l60,60-60,60-60-60Z"/><text class="cls-7" transform="translate(278.94 278)">Is the li<tspan class="cls-15" x="43.87" y="0">s</tspan><tspan x="49.61" y="0">t </tspan><tspan class="cls-16" x="58.41" y="0">&quot;</tspan><tspan class="cls-17" x="63.05" y="0">Y</tspan><tspan x="70.2" y="0">our </tspan><tspan class="cls-8" x="4.1" y="15.6">R</tspan><tspan x="12.88" y="15.6">e</tspan><tspan class="cls-15" x="20.75" y="15.6">p</tspan><tspan x="29.15" y="15.6">s&quot; em</tspan><tspan class="cls-18" x="62.77" y="15.6">p</tspan><tspan class="cls-11" x="71.04" y="15.6">ty?</tspan></text><path class="cls-2" d="M258.63,498.5H181.37"/><path class="cls-6" d="M263.88,498.5l-7,3.5,1.75-3.5-1.75-3.5Z"/><path class="cls-6" d="M176.12,498.5l7-3.5-1.75,3.5,1.75,3.5Z"/><path class="cls-2" d="M325,534.87v27.26"/><path class="cls-6" d="M325,529.62l3.5,7-3.5-1.75-3.5,1.75Z"/><path class="cls-6" d="M325,567.38l-3.5-7,3.5,1.75,3.5-1.75Z"/><path class="cls-2" d="M384.71,483.21h140q10,0,10-10V445.87"/><path class="cls-6" d="M534.71,440.62l3.5,7-3.5-1.75-3.5,1.75Z"/><rect class="cls-19" x="265" y="468.5" width="120" height="60"/><text class="cls-7" transform="translate(273.99 504)">Vi<tspan class="cls-8" x="12.18" y="0">e</tspan><tspan x="19.8" y="0">w </tspan><tspan class="cls-16" x="33.08" y="0">&quot;</tspan><tspan class="cls-17" x="37.73" y="0">Y</tspan><tspan x="44.88" y="0">our </tspan><tspan class="cls-8" x="69.19" y="0">R</tspan><tspan x="77.96" y="0">e</tspan><tspan class="cls-15" x="85.84" y="0">p</tspan><tspan x="94.24" y="0">s&quot;</tspan></text><path class="cls-2" d="M534.71,379.5V315.3"/><path class="cls-6" d="M534.71,310l3.5,7-3.5-1.75-3.5,1.75Z"/><rect class="cls-19" x="475" y="379.5" width="120" height="60"/><text class="cls-7" transform="translate(492.27 415)"><tspan class="cls-8">A</tspan><tspan x="8.84" y="0">dd N</tspan><tspan class="cls-8" x="39.38" y="0">e</tspan><tspan class="cls-11" x="46.99" y="0">w </tspan><tspan class="cls-20" x="60.28" y="0">R</tspan><tspan x="69.06" y="0">ep</tspan></text><path class="cls-2" d="M354.71,635.3v13.63q0,10,10,10h20q10,0,10,10v13.63"/><path class="cls-6" d="M354.71,630l3.5,7-3.5-1.75-3.5,1.75Z"/><path class="cls-6" d="M394.71,687.81l-3.5-7,3.5,1.75,3.5-1.75Z"/><path class="cls-2" d="M294.71,635.3v13.63q0,10-10,10H269q-10,0-10,10v13.63"/><path class="cls-6" d="M294.71,630l3.5,7-3.5-1.75-3.5,1.75Z"/><path class="cls-6" d="M259,687.81l-3.5-7,3.5,1.75,3.5-1.75Z"/><rect class="cls-19" x="265" y="568.5" width="120" height="60"/><text class="cls-7" transform="translate(272.03 604)">Vi<tspan class="cls-8" x="12.18" y="0">e</tspan><tspan x="19.8" y="0">w a </tspan><tspan class="cls-8" x="43.71" y="0">R</tspan><tspan x="52.48" y="0">ep d</tspan><tspan class="cls-21" x="80.63" y="0">e</tspan><tspan x="88.31" y="0">tail</tspan></text><path class="cls-2" d="M414.71,682.13V558.93q0-10-10-10h-40q-10,0-10-6.82V535.3"/><path class="cls-6" d="M414.71,687.38l-3.5-7,3.5,1.75,3.5-1.75Z"/><path class="cls-6" d="M354.71,530l3.5,7-3.5-1.75-3.5,1.75Z"/><rect class="cls-19" x="335" y="688.5" width="120" height="60"/><text class="cls-7" transform="translate(371.02 724)"><tspan class="cls-18">c</tspan><tspan class="cls-11" x="6.86" y="0">all </tspan><tspan class="cls-8" x="23.91" y="0">R</tspan><tspan x="32.68" y="0">ep</tspan></text><path class="cls-2" d="M115,534.87v62.26"/><path class="cls-6" d="M115,529.62l3.5,7-3.5-1.75-3.5,1.75Z"/><path class="cls-6" d="M115,602.38l-3.5-7,3.5,1.75,3.5-1.75Z"/><rect class="cls-12" x="68.41" y="560.95" width="97.33" height="17.81"/><text class="cls-7" transform="translate(70.41 574)">tap on an issue</text><path class="cls-2" d="M294.71,467.56V383.93q0-10-10-10H181.08"/><path class="cls-6" d="M294.71,467.81l-3.5-7,3.5,1.75,3.5-1.75Z"/><path class="cls-6" d="M175.83,373.93l7-3.5-1.75,3.5,1.75,3.5Z"/><rect class="cls-19" x="55" y="468.5" width="120" height="60"/><text class="cls-7" transform="translate(68.72 499)">Vi<tspan class="cls-8" x="12.18" y="0">e</tspan><tspan x="19.8" y="0">w </tspan><tspan class="cls-22" x="33.08" y="0">Tr</tspan><tspan x="44.99" y="0">ending </tspan><tspan x="27.52" y="15.6">Issues</tspan></text><path class="cls-2" d="M115,404.87v57.26"/><path class="cls-6" d="M115,409.37l-3.5,3,3.5-8.25,3.5,8.25Z"/><path class="cls-6" d="M115,467.38l-3.5-7,3.5,1.75,3.5-1.75Z"/><rect class="cls-19" x="55" y="343.5" width="120" height="60"/><text class="cls-7" transform="translate(61.49 379)">Vi<tspan class="cls-8" x="12.18" y="0">e</tspan><tspan x="19.8" y="0">w/Edit Hi</tspan><tspan class="cls-15" x="78.28" y="0">st</tspan><tspan class="cls-11" x="89.48" y="0">o</tspan><tspan class="cls-23" x="97.63" y="0">r</tspan><tspan x="102.78" y="0">y</tspan></text><rect class="cls-19" x="55" y="603.5" width="120" height="60"/><text class="cls-7" transform="translate(66.59 625)">Vi<tspan class="cls-8" x="12.18" y="0">e</tspan><tspan x="19.8" y="0">w wh</tspan><tspan class="cls-8" x="51.09" y="0">a</tspan><tspan x="58.24" y="0">t </tspan><tspan class="cls-8" x="67.04" y="0">y</tspan><tspan x="73.5" y="0">our </tspan><tspan class="cls-8" x="-10.35" y="15.6">R</tspan><tspan x="-1.57" y="15.6">ephas </tspan><tspan class="cls-15" x="39.25" y="15.6">s</tspan><tspan class="cls-11" x="44.98" y="15.6">aid about </tspan><tspan x="20.63" y="31.2">this issue</tspan></text><path class="cls-2" d="M601.37,278.5h82.76"/><path class="cls-6" d="M596.12,278.5l7-3.5-1.75,3.5,1.75,3.5Z"/><path class="cls-6" d="M689.38,278.5l-7,3.5,1.75-3.5-1.75-3.5Z"/><path class="cls-2" d="M535,242.13V195.87"/><path class="cls-6" d="M535,247.38l-3.5-7,3.5,1.75,3.5-1.75Z"/><path class="cls-6" d="M535,190.62l3.5,7-3.5-1.75-3.5,1.75Z"/><rect class="cls-19" x="475.9" y="248.5" width="120" height="60"/><text class="cls-7" transform="translate(489.89 284)">S<tspan class="cls-15" x="7.41" y="0">e</tspan><tspan class="cls-11" x="15.16" y="0">a</tspan><tspan class="cls-24" x="22.57" y="0">r</tspan><tspan x="27.2" y="0">ch </tspan><tspan class="cls-24" x="45.46" y="0">f</tspan><tspan class="cls-11" x="50.46" y="0">or </tspan><tspan class="cls-8" x="66.84" y="0">R</tspan><tspan x="75.62" y="0">ep</tspan></text><path class="cls-2" d="M601.37,159.5h82.76"/><path class="cls-6" d="M596.12,159.5l7-3.5-1.75,3.5,1.75,3.5Z"/><path class="cls-6" d="M689.38,159.5l-7,3.5,1.75-3.5-1.75-3.5Z"/><rect class="cls-19" x="475" y="129.5" width="120" height="60"/><text class="cls-7" transform="translate(491.24 165)">Find <tspan class="cls-18" x="30.81" y="0">b</tspan><tspan x="39.08" y="0">y </tspan><tspan class="cls-8" x="49.01" y="0">S</tspan><tspan x="56.16" y="0">t</tspan><tspan class="cls-22" x="61.75" y="0">r</tspan><tspan x="66.38" y="0">e</tspan><tspan class="cls-21" x="74.25" y="0">e</tspan><tspan class="cls-11" x="81.94" y="0">t</tspan></text><path class="cls-2" d="M750.5,242.13V195.87"/><path class="cls-6" d="M750.5,247.38l-3.5-7,3.5,1.75,3.5-1.75Z"/><path class="cls-6" d="M750.5,190.62l3.5,7-3.5-1.75-3.5,1.75Z"/><rect class="cls-19" x="690.5" y="248.5" width="120" height="60"/><text class="cls-7" transform="translate(715.77 284)">Find <tspan class="cls-18" x="30.81" y="0">b</tspan><tspan x="39.08" y="0">y ZIP</tspan></text><path class="cls-2" d="M750.5,123.13V70.87"/><path class="cls-6" d="M750.5,128.38l-3.5-7,3.5,1.75,3.5-1.75Z"/><path class="cls-6" d="M750.5,65.62l3.5,7-3.5-1.75L747,72.62Z"/><rect class="cls-19" x="690.5" y="129.5" width="120" height="60"/><text class="cls-7" transform="translate(717.2 165)">Select <tspan class="cls-8" x="42.3" y="0">R</tspan><tspan x="51.08" y="0">ep</tspan></text><path class="cls-2" d="M810.5,34.64H920.21q10,0,10,10V93.27"/><path class="cls-6" d="M930.21,98.52l-3.5-7,3.5,1.75,3.5-1.75Z"/><rect class="cls-19" x="690.5" y="4.5" width="120" height="60"/><text class="cls-7" transform="translate(714.35 40)">Vi<tspan class="cls-8" x="12.18" y="0">e</tspan><tspan x="19.8" y="0">w D</tspan><tspan class="cls-25" x="42.96" y="0">e</tspan><tspan x="50.65" y="0">tails</tspan></text><path class="cls-2" d="M236.14,681.13V558.93q0-10,10-10h38.57q10,0,10-6.82V535.3"/><path class="cls-6" d="M236.14,686.38l-3.5-7,3.5,1.75,3.5-1.75Z"/><path class="cls-6" d="M294.71,530l3.5,7-3.5-1.75-3.5,1.75Z"/><rect class="cls-19" x="199" y="688.5" width="120" height="60"/><text class="cls-7" transform="translate(229.24 724)">email <tspan class="cls-20" x="37.6" y="0">R</tspan><tspan class="cls-26" x="46.37" y="0">ep</tspan></text><path class="cls-2" d="M930.21,219.21V354.64q0,10-10,10H574.71q-10,0-10-10V315.3"/><path class="cls-6" d="M564.71,310l3.5,7-3.5-1.75-3.5,1.75Z"/><rect class="cls-12" x="921.69" y="264.95" width="22.42" height="17.81"/><text class="cls-7" transform="translate(923.69 278)">No</text><path class="cls-2" d="M990.5,159.5h83.13"/><path class="cls-6" d="M1078.88,159.5l-7,3.5,1.75-3.5-1.75-3.5Z"/><rect class="cls-12" x="1017.4" y="151.95" width="24.89" height="17.81"/><text class="cls-7" transform="translate(1019.4 165)"><tspan class="cls-13">Y</tspan><tspan x="7.15" y="0">es</tspan></text><path class="cls-14" d="M930.5,99.5l60,60-60,60-60-60Z"/><text class="cls-7" transform="translate(880.23 165)">Is this <tspan class="cls-8" x="38.65" y="0">y</tspan><tspan x="45.11" y="0">our </tspan><tspan class="cls-8" x="69.42" y="0">R</tspan><tspan x="78.19" y="0">e</tspan><tspan class="cls-27" x="86.07" y="0">p</tspan><tspan x="93.95" y="0">?</tspan></text><path class="cls-2" d="M1139.71,189.5V488.93c0,6.67-3.33,10-20,10H386.08"/><path class="cls-6" d="M385.83,498.93l7-3.5-1.75,3.5,1.75,3.5Z"/><rect class="cls-19" x="1080" y="129.5" width="120" height="60"/><text class="cls-7" transform="translate(1092.36 159)"><tspan class="cls-8">A</tspan><tspan x="8.84" y="0">dd </tspan><tspan class="cls-8" x="29.11" y="0">R</tspan><tspan x="37.88" y="0">ep </tspan><tspan class="cls-15" x="57.5" y="0">t</tspan><tspan x="62.96" y="0">o li</tspan><tspan class="cls-15" x="80.74" y="0">s</tspan><tspan x="86.48" y="0">t </tspan><tspan class="cls-16" x="12.14" y="15.6">&quot;</tspan><tspan class="cls-13" x="16.78" y="15.6">Y</tspan><tspan class="cls-11" x="23.93" y="15.6">our </tspan><tspan class="cls-20" x="48.24" y="15.6">R</tspan><tspan x="57.01" y="15.6">e</tspan><tspan class="cls-15" x="64.89" y="15.6">p</tspan><tspan x="73.29" y="15.6">s&quot;</tspan></text><path class="cls-2" d="M384.71,513.21h140q10,0,10,10v59.35"/><path class="cls-6" d="M534.71,587.81l-3.5-7,3.5,1.75,3.5-1.75Z"/><path class="cls-2" d="M534.71,648.5V773.93q0,10-10,10h-490q-10,0-10-10V174.64q0-10,10-10h280q10,0,10,10v37.92"/><path class="cls-6" d="M324.71,217.81l-3.5-7,3.5,1.75,3.5-1.75Z"/><rect class="cls-19" x="475" y="588.5" width="120" height="60"/><text class="cls-7" transform="translate(495.03 624)"><tspan class="cls-8">R</tspan><tspan x="8.77" y="0">em</tspan><tspan class="cls-8" x="29.33" y="0">ov</tspan><tspan class="cls-26" x="43.68" y="0">e </tspan><tspan class="cls-20" x="54.77" y="0">R</tspan><tspan x="63.54" y="0">ep</tspan></text></svg>