<?xml version="1.0" encoding="utf-8"?>
<!-- Generator: Adobe Illustrator 21.1.0, SVG Export Plug-In . SVG Version: 6.00 Build 0)  -->
<svg version="1.1" id="Layer_1" xmlns="http://www.w3.org/2000/svg" xmlns:xlink="http://www.w3.org/1999/xlink" x="0px" y="0px"
	 viewBox="0 0 459.9 414.7" style="enable-background:new 0 0 459.9 414.7;" xml:space="preserve">
<style type="text/css">
	.st0{fill:#444444;}
</style>
<title>ergonomic-handle</title>
<path class="st0" d="M455.1,352.3c-1.3-0.3-2.6-0.5-3.8-0.8c-36.1-6.2-83.1-12.2-127-3.4c-2.6,0.5-5.3,1.1-7.8,1.7
	c-7.8,1.7-15.2,3.3-22.8,3.6c-17.9,0.6-35.1-6.6-48.3-20.3c-12.7-13.2-20.2-30.9-20.6-48.5c5.7,5.8,11.6,11.3,17.7,16.5l0.6-0.6
	c-10.6-13.1-20.2-27.1-28.5-41.8c-8.4-14.9-18.6-28.9-26.6-44c-7.8-14.8-11.7-31.2-16.6-47.1c-5-16.1-11.7-31.5-20.7-45.7
	c-5-7.9-10.8-15-16.5-22.3c-2.6-3.3-5.2-6.8-6.6-10.9c-0.7-2.1-1.1-4.3-1.6-6.4c-9.2-0.3-18.1-1.2-27-4c-7-2.2-13.7-5.2-20-8.8
	c-8.7-5-16.7-11.4-23.2-19.1c-6.9-8.1-13.8-19.2-7.6-29.6c0.1-3.2,0.8-6.3,1.6-9.4c15.8,7.6,33,12.3,50.4,14c9,0.9,17.9,0.4,27,0.4
	c8.3,0,15.9,1.3,22.1,7.2c6,5.7,10.2,13.2,15.2,19.8c5.2,6.9,10.7,13.4,16.7,19.6c8.5,8.9,17.9,18.1,28.4,24.7
	c8.8,5.5,17.7,10.9,26.3,16.6c7.2,4.8,13.9,9.9,19.8,16.1c6,6.3,11,13.4,16.4,20.3c7.3,9.4,15.4,18.5,25.7,24.7
	c15.2,9.1,33.1,11.5,50.3,14c8.8,1.3,17.5,2.9,26.1,4.9c4,0.9,8.1,1.7,12.3,1.5c4.4-0.2,8.7-1.2,13.1-1.9c18.4-3,37.1-5.5,55.7-6.7
	c1.6-0.1,3.1-0.2,4.7-0.2l0-10c-14,0.3-28.1,2.3-42,4.1c-8.8,1.1-17.6,2.5-26.4,4c-8.4,1.5-16-1-24.2-2.7
	c-17.4-3.5-35.6-4.2-52.4-10.2c-13.1-4.7-22.9-12.6-31.6-23.3c-5.6-6.8-10.6-14.1-16.3-20.8c-5.6-6.6-11.8-12.4-18.8-17.5
	c-9.5-7-19.8-13-29.8-19.3c-10.6-6.7-20-15.1-28.8-24.1c-6.1-6.3-11.8-13-17.1-19.9c-5.2-6.8-9.6-14.2-15.6-20.4
	c-6-6.1-13.4-9.4-21.8-10.4c-8.6-1-17.3,0.1-25.9-0.2c-17.8-0.6-35.7-4.7-51.9-12.1c-2.7-1.2-5.4-2.6-8-3.9c-3.6,0.5-6.2,2-7.9,5.4
	c-1.9,3.7-2.7,8.4-3,12.5c-6.2,12-1.4,24.5,6.4,35c-4.3,10-7.1,21.7-8.1,34.2c-4.7,2.2-13.8,6.6-16.9,8.1c-4.9,2.3-9.8,4.9-13.3,9.2
	c-4.3,5.2-5.8,11.9-6.3,18.5c-0.9,12.4,1.1,25.3,3.4,37.5c1.2,6.2,2.4,12.3,3.8,18.4c0.7,3.2,1.8,6.3,3.3,9.1
	c-0.8,5.9-0.8,15.7,0.8,20.3l0.1,0.1c4.3,11.1,12.8,22.3,25.7,34.2c0.7,0.7,1.4,1.3,2.2,2c-1.7,5.6-0.9,12.1,2.3,18.2
	c3.1,5.8,7.8,10.2,12.3,14.5c5.1,4.8,11,10.3,17.8,14.6c-1.2,8.6,5.7,18,11.5,22.2l1.7,1.2c6.5,4.7,10.4,7.6,17.4,12.4
	c2.1,1.4,4.7,2.5,7.1,3c2.8,0.6,5.6,0.9,8.5,0.9c2,0,4-0.3,5.9-0.6c1.6-0.3,3.3-0.6,4.9-0.9c-0.1,3-0.9,6.1-2.6,9.3
	c-0.9,1.7-2.1,3.4-3.3,5.2c-2.2,3.2-4.7,6.8-5.9,11.2c-2.1,8.1,0.7,17.3,7.7,25.4c7.8,8.9,18.3,14.5,26.6,18.3
	c22,10.2,44.3,15.3,65.2,15.3c13.3,0,26.1-2.1,37.9-6.3c13.3-4.7,21.6-12.1,24.1-21.3c1.9-7.3,0.2-15.6-5-24.1
	c-0.5-0.8-1-1.6-1.5-2.4c6.3,1.8,12.8,2.8,19.3,2.7c9.1-0.1,18.1-1.7,27.1-3.7c2.5-0.6,5.1-1.1,7.6-1.6c22.2-4.4,56.3-8,123.3,3.5
	c1,0.2,2.2,0.4,3.4,0.7c2.7,0.6,5,1.1,6.9,1.1v-10C459.1,353.2,456.7,352.7,455.1,352.3z M11.1,117c2.2-8.5,10.4-11.5,17.5-14.9
	c2.5-1.2,5.1-2.4,7.6-3.7c0,0.4,0,0.8,0,1.2c0.2,17,3.5,33.2,9.3,45.8c-3.8-1.7-7.7-2.9-11.6-2.8c7.6,3.4,13.5,9.2,19.6,14.7
	c2.9,2.6,5.6,5.5,8.8,7.7c0.5,0.4,1,0.8,1.6,1.1c0.1,0.1,0.2,0.1,0.2,0.2l0,0c1.2,0.9,2.3,1.7,3.4,2.6c6.2,4.8,13.4,10.4,16.4,17.9
	c3.1,8-0.9,13.7-7,18.7c-15.2-4.6-29.9-10.4-45.1-15.1c-5.8-1.8-11.4-4-13.6-10.1c-2.4-6.6-3.3-14-4.6-20.9
	c-1.4-7.1-2.4-14.2-3.1-21.4C9.9,131.3,9.3,123.8,11.1,117z M21,204.8c-0.5-1.4-0.7-4.6-0.7-8.1c3.3,1.7,6.8,2.9,10.3,3.9
	c5.8,1.7,11.5,3.6,17.2,5.6c10.3,3.6,20.5,7.3,31,10.4c3.6-2.6,7.5-5.5,10.5-9c8.1-0.9,17.9-1.4,27,1.1c7.8,2.2,17.3,8.3,20.3,15.8
	c1.6,3.9,0,11.6-2.5,16.7c-8.1,1.5-16,2.8-23.6,4c-8.4,1.4-17,2.8-26.1,4.5c-4.5,0.8-10.1,0.4-15.5-0.2c-9.2-1-17.4-7.5-24.8-14.3
	C32.3,224.4,24.8,214.5,21,204.8z M50.7,258.1c-0.9-1.8-1.7-3.9-1.9-6.2c5.7,3.9,12,6.9,19.1,7.6c3.5,0.4,7.1,0.7,10.7,0.7
	c2.7,0,5.3-0.2,7.8-0.6c9-1.7,17.6-3.1,25.9-4.5c8.4-1.4,17-2.8,26.1-4.5l2.2-0.4l1.2-1.9c0.7-1.1,1.3-2.3,1.9-3.7
	c5.5,0.1,11.4,1.5,17.7,4.1c4.9,2,9.2,10.6,8.2,16c-0.8,4.3-3.9,5.6-12.5,8c-1.2,0.3-2.4,0.7-3.6,1c-6.2,1.9-12.3,4-18.3,6.2
	c-3,1.1-5.9,2.1-8.9,3.1c-11.2,3.8-25.2,8.6-37.6,5.5c-10.7-2.7-19.6-11.1-27.6-18.6C56.9,266.1,53,262.5,50.7,258.1z M122.4,321.2
	c-4.5,0.8-10.1,0.5-14.2-1.7c-6.9-4.7-10.7-7.6-17.2-12.2l-1.7-1.2c-3-2.2-5.6-5.8-6.9-8.9c1.2,0.4,2.3,0.8,3.6,1.1
	c3.7,1,7.5,1.4,11.2,1.4c11.5,0,22.7-3.8,32.1-7c3-1,6-2.1,9-3.2c5.8-2.1,11.8-4.2,17.8-6c1.2-0.3,2.3-0.7,3.5-1
	c2-0.6,4.1-1.2,6.2-1.9c4.7,2.5,9,5.3,10.4,9.3c1.4,4.2-0.8,9.1-3.6,12.2c-3.6,3.9-8.8,6.4-14,8.6C147,315.5,134.8,319,122.4,321.2z
	 M259.7,360.3c2,2.7,3.9,5.2,5.5,7.9c2.6,4.2,5.4,10.5,3.8,16.3c-2,7.5-10.8,12-17.7,14.5c-28.1,9.9-62.1,6.8-95.7-8.7
	c-7.4-3.4-16.7-8.2-23.3-15.7c-4.7-5.4-6.8-11.5-5.5-16.2c0.7-2.7,2.5-5.3,4.4-8c1.4-2,2.8-4,4-6.3c2.8-5.4,4-10.8,3.6-16.2
	c8.1-2.1,16-4.8,23.6-8c6.2-2.6,12.6-5.7,17.5-11c5.9-6.4,8.1-15.1,5.6-22.2c-1.9-5.3-5.7-9.1-10.2-12c1.8-2,3.2-4.6,3.8-8
	c1.9-10.1-5-23.3-14.1-27.1c-6.4-2.7-12.5-4.2-18.4-4.7c0.9-4.8,0.9-9.9-0.7-14.1c-4.5-11.1-16.7-18.8-26.9-21.6
	c-8.2-2.3-16.7-2.5-24.3-2c3.3-15.7-11.4-28.6-22.8-37.2c-0.6-0.5-1.3-0.9-1.9-1.4l0,0c-7.3-5.5-12.6-11.3-15-16.2
	c-9.5-19.8-12.7-54.1-3-80.9c2.7,2.7,5.4,5.2,8,7.3c7,5.8,15,10.5,23.2,14.3c10.9,5,22.6,8.2,34.6,8.9c2.7,7.6,8,13.4,12.9,19.6
	c5,6.4,9.7,13,13.9,20c8.6,14.5,14.4,30,19.1,46.1c4.8,16.3,9.6,32.1,18.1,46.9c4.3,7.4,8.7,14.7,13.2,22c3,4.8,5.8,9.9,9.2,14.5
	l10.4,18.3c-1.1,21.8,7.6,44.4,23.4,60.7c4.8,4.9,10.2,9.2,16.1,12.7C256.1,355.4,257.9,357.9,259.7,360.3z"/>
</svg>
