<svg id="Layer_3" data-name="Layer 3" xmlns="http://www.w3.org/2000/svg" viewBox="0 0 399.5 374.2"><defs><style>.cls-1,.cls-2,.cls-3{fill:none;stroke:#000;stroke-miterlimit:10;}.cls-1,.cls-3{stroke-width:3px;}.cls-2{stroke-width:10px;}.cls-3{stroke-linecap:round;}</style></defs><title>ergonomic-view</title><path class="cls-1" d="M281.73,346.19a21.67,21.67,0,0,0,1.84-15.53c-3.9-16.05-20.85-26.55-34.79-32.95-15-6.87-30.95-10.55-47.26-12.37C185,283.5,168,282.4,151.85,286.8c-23.41,6.36-35.59,21.45-31.65,37.65a24.71,24.71,0,0,0,3.24,7.89" transform="translate(-27.41 -22.32)"/><path class="cls-1" d="M67.77,128.85c29-27.32,100.13,5.18,157.08,73.07s79.68,135.44,50.69,162.76" transform="translate(-27.41 -22.32)"/><path class="cls-2" d="M343.17,155.28a45.31,45.31,0,0,0-1.56-9.77c-11.93-44-87.1-79.65-167.9-79.65-36.89,0-68.57,7.43-91,19.7-1.65,1.56-20.82,9.92-34.15,10.71-4.21.25-12.57,1.33-15,3.73-1.2,1.2-1.2,1.73-1.2,2.4,0,2.4,3.59,6,4.79,7.19s9.58,12,10.21,25.59l.05,1.17A45.34,45.34,0,0,0,49,145.5c11.93,44,87.1,79.65,167.9,79.65C291.62,225.15,345,194.66,343.17,155.28Z" transform="translate(-27.41 -22.32)"/><line class="cls-3" x1="97.22" y1="102.83" x2="87.64" y2="116"/><line class="cls-3" x1="80.45" y1="98.04" x2="70.87" y2="111.21"/><line class="cls-3" x1="113.99" y1="111.21" x2="104.41" y2="124.39"/><line class="cls-3" x1="130.76" y1="120.79" x2="121.18" y2="133.97"/><line class="cls-3" x1="176.27" y1="175.89" x2="183.46" y2="165.11"/><line class="cls-3" x1="195.43" y1="195.05" x2="200.22" y2="186.67"/><line class="cls-3" x1="155.91" y1="157.92" x2="163.1" y2="147.14"/><line class="cls-3" x1="140.34" y1="144.75" x2="146.33" y2="135.16"/><path class="cls-1" d="M222.09,370.57c-29.53-12.18-62.5-35.06-92.81-67.21a361.49,361.49,0,0,1-39.57-49.94" transform="translate(-27.41 -22.32)"/><path class="cls-2" d="M281,216.49c27.54-9.42,58.31-10.72,86.35-2.78,8.41,2.38,16.32,6.2,24.65,8.8,6.44,2,17.88,5.28,24,1,7.19-5,4.78-17,2.14-24-3.64-6.64-9.35-14.07-21.58-21.71-9.58-6-38.47-16.85-51-36.53-17.24-27-29.72-32.14-34.72-36" transform="translate(-27.41 -22.32)"/><path d="M419.21,226.89a14.75,14.75,0,0,1-3.8,2.81,17.61,17.61,0,0,1-4,1.49A29.56,29.56,0,0,1,404,232a75.13,75.13,0,0,1-13.2-1.52c-4.2-.76-8.28-1.74-12.31-2.67l-6-1.38-3-.68c-1-.22-1.92-.41-2.9-.6a147.29,147.29,0,0,0-24-2.34c-4-.09-8.08-.16-12.11-.09-2,0-4,.11-6,.29a24.43,24.43,0,0,0-3,.44,7.7,7.7,0,0,0-2.83,1.12,6.51,6.51,0,0,1,2.11-2.57,18.16,18.16,0,0,1,2.82-1.81,35.59,35.59,0,0,1,6.1-2.43,64.48,64.48,0,0,1,12.66-2.33c4.25-.36,8.52-.47,12.79-.43a108.47,108.47,0,0,1,12.87.84c1.07.13,2.16.29,3.23.46l3.12.51c2.08.34,4.13.74,6.17,1.13,4.08.78,8.12,1.54,12.08,2.24,2,.34,3.94.64,5.87.87a52.7,52.7,0,0,0,5.62.46,22.8,22.8,0,0,0,4.93-.34,10,10,0,0,0,1.84-.56,6.08,6.08,0,0,0,1.26-.75Z" transform="translate(-27.41 -22.32)"/><path class="cls-1" d="M257.72,370.46c-32.3-10-70.65-33.71-105.63-68.85C97.34,246.6,69.27,185,80.21,151.54a12.71,12.71,0,0,1,9-8.3c31.12-8,87.86,23.43,134,78.31,33.4,39.72,55.16,79.14,60.52,109" transform="translate(-27.41 -22.32)"/><path class="cls-2" d="M418.07,199.4c4.79,7.19,3.79,20.43,3.68,28.12-.71,49.64-1.45,99.57-10,148.44-6.09,14.47-25.15,18.54-39.3,13.49a16.31,16.31,0,0,1-7.71-5.06,18.16,18.16,0,0,1-2.84-6.74,89.62,89.62,0,0,1-2.27-17.1c-1.54-30.62,5.41-60.92,9.92-91.24,1.27-8.54,2.35-17.17,1.75-25.78s-3-17.27-8.13-24.22" transform="translate(-27.41 -22.32)"/><path class="cls-1" d="M71.83,222.21C52.36,182.15,49.54,146,67.77,128.85" transform="translate(-27.41 -22.32)"/><path class="cls-2" d="M329.44,221,297.67,333.21c-6.53,23.07-27.05,38.91-49.27,45.56a137.68,137.68,0,0,1-20.24-5.83,38.19,38.19,0,0,0-12.53-2.35q-1.64,0-3.3-.09c-39.89-1.52-76.75-17.81-88.74-38-11-15.46-13.23-39.18-20.51-56.49-3.74-8.9-7.78-14.68-13.17-22.69a262.55,262.55,0,0,1-32.25-66.78c-3.65-11.43-5.42-23.36-8-35.06a110,110,0,0,1-1.94-12.17" transform="translate(-27.41 -22.32)"/><line class="cls-3" x1="38.54" y1="172.29" x2="46.92" y2="163.91"/><line class="cls-3" x1="48.12" y1="198.64" x2="56.5" y2="190.26"/><line class="cls-3" x1="61.29" y1="222.6" x2="68.48" y2="213.01"/><line class="cls-3" x1="76.86" y1="245.35" x2="82.85" y2="236.97"/><line class="cls-3" x1="94.83" y1="268.11" x2="100.82" y2="258.53"/><line class="cls-3" x1="117.58" y1="292.06" x2="124.77" y2="282.48"/><line class="cls-3" x1="125.97" y1="300.45" x2="131.96" y2="290.87"/><line class="cls-3" x1="142.83" y1="317.92" x2="148.72" y2="307.63"/><line class="cls-3" x1="165.98" y1="333.62" x2="172.68" y2="323.2"/><line class="cls-3" x1="179.62" y1="339.63" x2="183.46" y2="331.59"/><line class="cls-3" x1="215.79" y1="220.2" x2="219.39" y2="214.21"/><line class="cls-3" x1="236.16" y1="251.34" x2="239.75" y2="245.35"/><line class="cls-1" x1="301" y1="1.04" x2="181.43" y2="125.14"/><polygon points="179.27 111.37 184 122.47 195.27 126.78 169 138.04 179.27 111.37"/></svg>