<?xml version="1.0" encoding="utf-8"?>
<!-- Generator: Adobe Illustrator 21.1.0, SVG Export Plug-In . SVG Version: 6.00 Build 0)  -->
<svg version="1.1" id="Layer_1_copy" xmlns="http://www.w3.org/2000/svg" xmlns:xlink="http://www.w3.org/1999/xlink" x="0px"
	 y="0px" viewBox="0 0 400 400" style="enable-background:new 0 0 400 400;" xml:space="preserve">
<style type="text/css">
	.st0{fill:#444444;}
</style>
<title>AMlogo</title>
<g>
	<path class="st0" d="M200,25c96.6,0,175,78.4,175,175c0,46.4-18.4,90.9-51.3,123.7c-67.8,68.9-178.6,69.7-247.5,1.9
		S6.5,147,74.3,78.2c0.6-0.6,1.3-1.3,1.9-1.9C109,43.3,153.6,24.9,200,25 M200,0C89.5,0,0,89.5,0,200s89.5,200,200,200
		s200-89.5,200-200S310.5,0,200,0z"/>
	<path class="st0" d="M134.2,146L182,271H86.3L134.2,146 M134.2,76L50,296h168.3L134.2,76L134.2,76z"/>
	<g>
		<rect x="90.7" y="206" class="st0" width="88.3" height="25"/>
	</g>
	<path class="st0" d="M265.8,146l47.8,125H218L265.8,146 M265.8,76l-84.2,220H350L265.8,76L265.8,76z"/>
</g>
</svg>
