<svg id="Layer_1_copy" data-name="Layer 1 copy" xmlns="http://www.w3.org/2000/svg" viewBox="0 0 400 400"><defs><style>.cls-1{fill:#333;}.cls-2{fill:none;stroke:#333;stroke-miterlimit:10;stroke-width:25px;}</style></defs><title>AMlogo</title><path class="cls-1" d="M200,26A175,175,0,0,1,323.74,324.74,175,175,0,1,1,76.26,77.26,173.85,173.85,0,0,1,200,26m0-25C89.54,1,0,90.54,0,201S89.54,401,200,401s200-89.54,200-200S310.46,1,200,1Z"/><path class="cls-1" d="M134.16,146.72l47.83,125H86.33l47.83-125m0-70L50,296.74H218.31l-84.16-220Z"/><line class="cls-2" x1="90.74" y1="219.05" x2="179.04" y2="219.05"/><path class="cls-1" d="M265.84,146.72l47.83,125H218l47.83-125m0-70-84.16,220H350l-84.16-220Z"/></svg>