<svg xmlns="http://www.w3.org/2000/svg" viewBox="0 0 768 768"><defs><style>.cls-1{fill:#3fa9f5;}.cls-2,.cls-3{fill:none;stroke:#fff;}.cls-2,.cls-3,.cls-4,.cls-5{stroke-miterlimit:10;}.cls-2{stroke-width:6px;}.cls-4,.cls-5{fill:#fff;stroke:#3fa9f5;stroke-width:5px;}.cls-4{fill-rule:evenodd;}</style></defs><title>blueprint</title><g id="Layer_2" data-name="Layer 2"><rect class="cls-1" width="768" height="768"/><rect class="cls-2" x="23.5" y="24.5" width="720" height="720"/><rect class="cls-3" x="24" y="24" width="719" height="720"/><line class="cls-3" x1="24" y1="709.71" x2="743" y2="709.71"/><line class="cls-3" x1="24" y1="675.43" x2="743" y2="675.43"/><line class="cls-3" x1="24" y1="641.14" x2="743" y2="641.14"/><line class="cls-3" x1="24" y1="606.86" x2="743" y2="606.86"/><line class="cls-3" x1="24" y1="572.57" x2="743" y2="572.57"/><line class="cls-3" x1="24" y1="538.29" x2="743" y2="538.29"/><line class="cls-3" x1="24" y1="504" x2="743" y2="504"/><line class="cls-3" x1="24" y1="469.71" x2="743" y2="469.71"/><line class="cls-3" x1="24" y1="435.43" x2="743" y2="435.43"/><line class="cls-3" x1="24" y1="401.14" x2="743" y2="401.14"/><line class="cls-3" x1="24" y1="366.86" x2="743" y2="366.86"/><line class="cls-3" x1="24" y1="332.57" x2="743" y2="332.57"/><line class="cls-3" x1="24" y1="298.29" x2="743" y2="298.29"/><line class="cls-3" x1="24" y1="264" x2="743" y2="264"/><line class="cls-3" x1="24" y1="229.71" x2="743" y2="229.71"/><line class="cls-3" x1="24" y1="195.43" x2="743" y2="195.43"/><line class="cls-3" x1="24" y1="161.14" x2="743" y2="161.14"/><line class="cls-3" x1="24" y1="126.86" x2="743" y2="126.86"/><line class="cls-3" x1="24" y1="92.57" x2="743" y2="92.57"/><line class="cls-3" x1="24" y1="58.29" x2="743" y2="58.29"/><line class="cls-3" x1="708.76" y1="24" x2="708.76" y2="744"/><line class="cls-3" x1="674.52" y1="24" x2="674.52" y2="744"/><line class="cls-3" x1="640.29" y1="24" x2="640.29" y2="744"/><line class="cls-3" x1="606.05" y1="24" x2="606.05" y2="744"/><line class="cls-3" x1="571.81" y1="24" x2="571.81" y2="744"/><line class="cls-3" x1="537.57" y1="24" x2="537.57" y2="744"/><line class="cls-3" x1="503.33" y1="24" x2="503.33" y2="744"/><line class="cls-3" x1="469.1" y1="24" x2="469.1" y2="744"/><line class="cls-3" x1="434.86" y1="24" x2="434.86" y2="744"/><line class="cls-3" x1="400.62" y1="24" x2="400.62" y2="744"/><line class="cls-3" x1="366.38" y1="24" x2="366.38" y2="744"/><line class="cls-3" x1="332.14" y1="24" x2="332.14" y2="744"/><line class="cls-3" x1="297.9" y1="24" x2="297.9" y2="744"/><line class="cls-3" x1="263.67" y1="24" x2="263.67" y2="744"/><line class="cls-3" x1="229.43" y1="24" x2="229.43" y2="744"/><line class="cls-3" x1="195.19" y1="24" x2="195.19" y2="744"/><line class="cls-3" x1="160.95" y1="24" x2="160.95" y2="744"/><line class="cls-3" x1="126.71" y1="24" x2="126.71" y2="744"/><line class="cls-3" x1="92.48" y1="24" x2="92.48" y2="744"/><line class="cls-3" x1="58.24" y1="24" x2="58.24" y2="744"/></g><g id="Layer_1" data-name="Layer 1"><polygon class="cls-4" points="439.33 317.09 522.68 628.12 514.44 668.36 487.2 637.63 403.86 326.6 439.33 317.09"/><polygon class="cls-4" points="408.15 103 408.15 162.27 395.67 162.27 395.67 195.2 372.33 195.2 372.33 162.27 359.85 162.27 359.85 103 408.15 103"/><path class="cls-5" d="M383.05,477.82A204.92,204.92,0,0,1,317.32,467l9.22-25.32a178.11,178.11,0,0,0,56.55,9.22,180.09,180.09,0,0,0,167-113.45l25.32,9.22C544.62,425.3,467.94,477.82,383.05,477.82Z"/><path class="cls-4" d="M384,197.65a73.46,73.46,0,0,0-55.81,121.22L245.32,628.12l8.24,40.24,27.24-30.73L360.37,340.7A73.47,73.47,0,1,0,384,197.65Zm0,113.46a40,40,0,1,1,40-40A40,40,0,0,1,384,311.11Z"/></g></svg>