<svg id="Layer_1" data-name="Layer 1" xmlns="http://www.w3.org/2000/svg" viewBox="0 0 792 792"><defs><style>.cls-1{fill:#92be4f;}.cls-18,.cls-2{fill:none;}.cls-3{fill:#2e8f97;}.cls-4{fill:#f15b40;}.cls-5{font-size:30px;fill:#fff;}.cls-20,.cls-5{font-family:Uniform-Bold, Uniform;}.cls-20,.cls-6{font-weight:700;}.cls-6{letter-spacing:0.03em;}.cls-7{font-size:22.5px;font-family:Uniform-Medium, Uniform;}.cls-8{letter-spacing:-0.02em;}.cls-9{letter-spacing:0em;}.cls-10{letter-spacing:-0.01em;}.cls-11{letter-spacing:0em;}.cls-12{letter-spacing:-0.02em;}.cls-13{letter-spacing:-0.02em;}.cls-14{letter-spacing:-0.06em;}.cls-15{letter-spacing:0.02em;}.cls-16{letter-spacing:0em;}.cls-17{letter-spacing:0em;}.cls-18{stroke:#58595b;stroke-miterlimit:10;stroke-width:5px;}.cls-19,.cls-20{fill:#58595b;}.cls-20{font-size:75px;letter-spacing:0.03em;}</style></defs><title>cbt</title><circle class="cls-1" cx="201.14" cy="564.75" r="143.88"/><polygon class="cls-2" points="396 227.25 201.14 564.75 590.86 564.75 396 227.25"/><circle class="cls-3" cx="396" cy="227.25" r="143.88"/><circle class="cls-4" cx="590.86" cy="564.75" r="143.88"/><text class="cls-5" transform="translate(307.95 207.58)"><tspan class="cls-6">THOUGHTS</tspan><tspan class="cls-7"><tspan x="-31.88" y="30">Wh</tspan><tspan class="cls-8" x="4.35" y="30">a</tspan><tspan class="cls-9" x="16.61" y="30">t </tspan><tspan class="cls-8" x="32.4" y="30">w</tspan><tspan x="49.62" y="30">e think </tspan><tspan class="cls-10" x="131.09" y="30">a</tspan><tspan class="cls-11" x="143.69" y="30">ffects</tspan><tspan x="-21.25" y="60">h</tspan><tspan class="cls-12" x="-7.41" y="60">o</tspan><tspan class="cls-11" x="6.27" y="60">w </tspan><tspan class="cls-8" x="29.83" y="60">w</tspan><tspan class="cls-11" x="47.04" y="60">e </tspan><tspan class="cls-13" x="66.55" y="60">f</tspan><tspan x="75.66" y="60">eel and act</tspan></tspan></text><text class="cls-5" transform="translate(123.11 545.08)"><tspan class="cls-6">FEELINGS</tspan><tspan class="cls-7"><tspan x="-34.98" y="30">Wh</tspan><tspan class="cls-8" x="1.24" y="30">a</tspan><tspan class="cls-9" x="13.51" y="30">t </tspan><tspan class="cls-8" x="29.3" y="30">w</tspan><tspan x="46.51" y="30">e </tspan><tspan class="cls-8" x="66.02" y="30">f</tspan><tspan x="75.13" y="30">eel </tspan><tspan class="cls-10" x="114.15" y="30">a</tspan><tspan class="cls-11" x="126.75" y="30">ffects</tspan><tspan x="-38.19" y="60">h</tspan><tspan class="cls-12" x="-24.35" y="60">o</tspan><tspan class="cls-11" x="-10.67" y="60">w </tspan><tspan class="cls-8" x="12.89" y="60">w</tspan><tspan class="cls-11" x="30.1" y="60">e think and act</tspan></tspan></text><text class="cls-5" transform="translate(499.18 545.08)"><tspan class="cls-6">BEH<tspan class="cls-14" x="65.55" y="0">A</tspan><tspan class="cls-15" x="85.2" y="0">VIORS</tspan></tspan><tspan class="cls-7"><tspan x="-14.61" y="30">Wh</tspan><tspan class="cls-8" x="21.61" y="30">a</tspan><tspan class="cls-9" x="33.87" y="30">t </tspan><tspan class="cls-12" x="49.67" y="30">w</tspan><tspan class="cls-16" x="66.88" y="30">e do </tspan><tspan class="cls-17" x="121.08" y="30">a</tspan><tspan x="133.68" y="30">ffects</tspan><tspan x="-28.25" y="60">h</tspan><tspan class="cls-12" x="-14.41" y="60">o</tspan><tspan class="cls-11" x="-0.73" y="60">w </tspan><tspan class="cls-8" x="22.83" y="60">w</tspan><tspan class="cls-9" x="40.04" y="60">e think and </tspan><tspan class="cls-13" x="168.62" y="60">f</tspan><tspan x="177.74" y="60">eel</tspan></tspan></text><path class="cls-18" d="M329.76,657.1a216.2,216.2,0,0,0,132.47,0"/><path class="cls-19" d="M315.58,652c5.81,4.86,12.6,12,16.16,18.36l-.07-12.64,8-9.76C333,650.57,323.15,651.86,315.58,652Z"/><path class="cls-19" d="M476.42,652c-5.81,4.86-12.6,12-16.16,18.36l.07-12.64-8-9.76C459,650.57,468.85,651.86,476.42,652Z"/><path class="cls-18" d="M606.53,407.17A216.2,216.2,0,0,0,540.3,292.45"/><path class="cls-19" d="M609.17,422c1.3-7.46,4.13-16.94,7.82-23.17l-10.91,6.38-12.47-2.08C599.28,407.68,605.3,415.53,609.17,422Z"/><path class="cls-19" d="M528.75,282.74c7.11,2.6,16.73,4.89,24,4.81l-11,6.26-4.44,11.84C536.23,298.48,532.45,289.34,528.75,282.74Z"/><path class="cls-18" d="M251.7,292.45a216.2,216.2,0,0,0-66.24,114.72"/><path class="cls-19" d="M263.25,282.74c-7.11,2.6-16.73,4.89-24,4.81l11,6.26,4.44,11.84C255.77,298.48,259.55,289.34,263.25,282.74Z"/><path class="cls-19" d="M182.83,422c-1.3-7.46-4.13-16.94-7.82-23.17l10.91,6.38,12.47-2.08C192.72,407.68,186.7,415.53,182.83,422Z"/><text class="cls-20" transform="translate(318.56 464.95)">CBT</text><circle class="cls-2" cx="396" cy="452.24" r="215.26"/></svg>