<svg id="Layer_1_copy" data-name="Layer 1 copy" xmlns="http://www.w3.org/2000/svg" viewBox="0 0 400 400"><defs><style>.cls-1{fill:#333;}.cls-2{fill:none;stroke:#333;stroke-miterlimit:10;stroke-width:20px;}</style></defs><title>Artboard 1</title><path class="cls-1" d="M200,20A180,180,0,0,1,327.28,327.28,180,180,0,1,1,72.72,72.72,178.82,178.82,0,0,1,200,20m0-20C89.54,0,0,89.54,0,200S89.54,400,200,400s200-89.54,200-200S310.46,0,200,0Z"/><path class="cls-1" d="M284.81,155.32l31.31,120.16H253.5l31.31-120.16m0-79.32L227.63,295.48H342L284.81,76Z"/><path class="cls-1" d="M200,155.32l31.31,120.16H168.69L200,155.32M200,76,142.81,295.48H257.19L200,76Z"/><path class="cls-1" d="M115.19,155.32,146.5,275.48H83.88l31.31-120.16m0-79.32L58,295.48H172.38L115.19,76Z"/><line class="cls-2" x1="170.5" y1="208" x2="230.5" y2="208"/></svg>