<svg id="Layer_1_copy" data-name="Layer 1 copy" xmlns="http://www.w3.org/2000/svg" viewBox="0 0 400 400"><defs><style>.cls-1{fill:#333;}.cls-2{fill:none;stroke:#333;stroke-miterlimit:10;stroke-width:20px;}</style></defs><title>AMlogo</title><path class="cls-1" d="M200,20A180,180,0,0,1,327.28,327.28,180,180,0,1,1,72.72,72.72,178.82,178.82,0,0,1,200,20m0-20C89.54,0,0,89.54,0,200S89.54,400,200,400s200-89.54,200-200S310.46,0,200,0Z"/><path class="cls-1" d="M200,128.56l60.21,147.18H139.79L200,128.56m0-52.82-90,220H290l-90-220Z"/><line class="cls-2" x1="153.57" y1="208.05" x2="248" y2="208.05"/></svg>