<svg id="Layer_1" data-name="Layer 1" xmlns="http://www.w3.org/2000/svg" xmlns:xlink="http://www.w3.org/1999/xlink" viewBox="0 0 670.8 631.2"><defs><style>.cls-1,.cls-13,.cls-2,.cls-3,.cls-4,.cls-5,.cls-6,.cls-7,.cls-9{fill:none;}.cls-2,.cls-3,.cls-4{stroke:#2e8e97;}.cls-2{stroke-width:3px;}.cls-3{stroke-width:4px;}.cls-4{stroke-width:5px;}.cls-13,.cls-5,.cls-6,.cls-7,.cls-9{stroke:#b2caac;}.cls-5{stroke-width:27px;}.cls-6{stroke-width:25px;}.cls-7{stroke-width:28px;}.cls-8{clip-path:url(#clip-path);}.cls-9{stroke-width:35px;}.cls-10{fill:#b2caac;}.cls-11{fill:#2e8e97;}.cls-12{font-size:13px;fill:#fff;font-family:Uniform-Bold, Uniform;font-weight:700;}.cls-13{stroke-width:30px;}.cls-14{letter-spacing:-0.02em;}.cls-15{letter-spacing:-0.01em;}.cls-16{letter-spacing:-0.01em;}.cls-17{letter-spacing:0em;}.cls-18{letter-spacing:-0.01em;}.cls-19{letter-spacing:0em;}.cls-20{fill:#ee5c45;}.cls-21{letter-spacing:-0.01em;}.cls-22{letter-spacing:0em;}.cls-23{fill:#f0b74c;}.cls-24{letter-spacing:0em;}.cls-25{letter-spacing:-0.02em;}.cls-26{letter-spacing:0em;}</style><clipPath id="clip-path" transform="translate(-48 -68.8)"><rect class="cls-1" x="48" y="68.8" width="670.8" height="631.2"/></clipPath></defs><title>social_media</title><line class="cls-2" x1="239.8" y1="521.36" x2="328.05" y2="430.38"/><line class="cls-2" x1="423.8" y1="342.1" x2="390.81" y2="536.5"/><line class="cls-3" x1="426.57" y1="327.77" x2="605.3" y2="143.5"/><line class="cls-2" x1="423.91" y1="329.5" x2="557.8" y2="587.7"/><line class="cls-2" x1="288.8" y1="62.5" x2="357.72" y2="197.75"/><line class="cls-4" x1="357.72" y1="197.75" x2="427.9" y2="335.5"/><line class="cls-5" x1="325.75" y1="438.23" x2="386.8" y2="567.5"/><line class="cls-6" x1="237.8" y1="520.5" x2="253.8" y2="289.5"/><line class="cls-7" x1="287.3" y1="60.5" x2="253.8" y2="292.9"/><g class="cls-8"><line class="cls-7" x1="51" y1="244" x2="254.68" y2="291.06"/></g><line class="cls-9" x1="254.14" y1="286.6" x2="333.75" y2="438.23"/><g class="cls-8"><path class="cls-10" d="M168.8,125.8a28.5,28.5,0,1,0-28.5-28.5,28.5,28.5,0,0,0,28.5,28.5" transform="translate(-48 -68.8)"/><path class="cls-11" d="M652.3,258.8a46.5,46.5,0,1,0-46.5-46.5,46.5,46.5,0,0,0,46.5,46.5" transform="translate(-48 -68.8)"/></g><text class="cls-12" transform="translate(584.24 148.38)">ADHD</text><line class="cls-13" x1="77.6" y1="476" x2="442" y2="88.5"/><g class="cls-8"><path class="cls-11" d="M486.8,205.3a48,48,0,1,0-48-48,48,48,0,0,0,48,48" transform="translate(-48 -68.8)"/></g><text class="cls-12" transform="translate(421.27 93.38)">PTSD</text><g class="cls-8"><path class="cls-11" d="M604.8,700a43.5,43.5,0,1,0-43.5-43.5A43.5,43.5,0,0,0,604.8,700" transform="translate(-48 -68.8)"/></g><text class="cls-12" transform="translate(541.35 592.58)">OCD</text><line class="cls-4" x1="424.97" y1="330.4" x2="628.8" y2="377.5"/><g class="cls-8"><path class="cls-11" d="M676.8,488.3a42,42,0,1,0-42-42,42,42,0,0,0,42,42" transform="translate(-48 -68.8)"/></g><text class="cls-12" transform="translate(611.2 382.38)"><tspan class="cls-14">p</tspan><tspan x="8.19" y="0">anic</tspan></text><g class="cls-8"><path class="cls-11" d="M335.8,174.3a45,45,0,1,0-45-45,45,45,0,0,0,45,45" transform="translate(-48 -68.8)"/></g><text class="cls-12" transform="translate(264.78 65.38)">bipolar</text><g class="cls-8"><path class="cls-11" d="M401.8,311.8a49.5,49.5,0,1,0-49.5-49.5,49.5,49.5,0,0,0,49.5,49.5" transform="translate(-48 -68.8)"/></g><text class="cls-12" transform="translate(334.83 198.38)"><tspan class="cls-15">s</tspan><tspan x="5.97" y="0">t</tspan><tspan class="cls-14" x="11.82" y="0">r</tspan><tspan x="16.95" y="0">e</tspan><tspan class="cls-16" x="24.83" y="0">s</tspan><tspan class="cls-17" x="30.86" y="0">s</tspan></text><line class="cls-4" x1="328.05" y1="430.38" x2="427.57" y2="327.77"/><g class="cls-8"><path class="cls-11" d="M377.8,548.8a52.5,52.5,0,1,0-52.5-52.5,52.5,52.5,0,0,0,52.5,52.5" transform="translate(-48 -68.8)"/></g><text class="cls-12" transform="translate(286.59 432.38)">me<tspan class="cls-14" x="20.23" y="0">n</tspan><tspan x="27.98" y="0">talh</tspan><tspan class="cls-18" x="52.83" y="0">e</tspan><tspan x="60.59" y="0">alth</tspan></text><g class="cls-8"><path class="cls-11" d="M434.8,696.3a60,60,0,1,0-60-60,60,60,0,0,0,60,60" transform="translate(-48 -68.8)"/></g><text class="cls-12" transform="translate(366 572.38)">h<tspan class="cls-18" x="8" y="0">e</tspan><tspan x="15.76" y="0">alth</tspan></text><g class="cls-8"><path class="cls-11" d="M285.8,638.8a49.5,49.5,0,1,0-49.5-49.5,49.5,49.5,0,0,0,49.5,49.5" transform="translate(-48 -68.8)"/></g><text class="cls-12" transform="translate(198.48 525.38)">mindfulne<tspan class="cls-19" x="65.51" y="0">s</tspan><tspan x="71.54" y="0">s</tspan></text><line class="cls-9" x1="254.68" y1="290.06" x2="424.97" y2="329.4"/><line class="cls-2" x1="438.8" y1="97" x2="426.13" y2="313.3"/><g class="cls-8"><path class="cls-20" d="M473.8,446.3a48,48,0,1,0-48-48,48,48,0,0,0,48,48" transform="translate(-48 -68.8)"/></g><text class="cls-12" transform="translate(401.76 334.38)">anxi<tspan class="cls-21" x="26.51" y="0">e</tspan><tspan class="cls-22" x="34.2" y="0">ty</tspan></text><g class="cls-8"><line class="cls-7" x1="121.6" y1="31.5" x2="255.14" y2="289.6"/><path class="cls-23" d="M301.8,407.8a49.5,49.5,0,1,0-49.5-49.5,49.5,49.5,0,0,0,49.5,49.5" transform="translate(-48 -68.8)"/></g><text class="cls-12" transform="translate(218.47 294.38)">dep<tspan class="cls-14" x="24.75" y="0">r</tspan><tspan x="29.89" y="0">e</tspan><tspan class="cls-24" x="37.76" y="0">s</tspan><tspan class="cls-17" x="43.8" y="0">sion</tspan></text><g class="cls-8"><path class="cls-10" d="M126.8,85.3s-6,0-6,6v12s0,6,6,6h84s6,0,6-6v-12s0-6-6-6Z" transform="translate(-48 -68.8)"/></g><text class="cls-12" transform="translate(78.99 33.38)">me<tspan class="cls-25" x="20.23" y="0">n</tspan><tspan x="27.98" y="0">talillne</tspan><tspan class="cls-19" x="71.51" y="0">s</tspan><tspan x="77.54" y="0">s</tspan></text><g class="cls-8"><path class="cls-10" d="M98.8,339.8a28.5,28.5,0,1,0-28.5-28.5,28.5,28.5,0,0,0,28.5,28.5" transform="translate(-48 -68.8)"/><path class="cls-10" d="M54,300.8s-6,0-6,6v12s0,6,6,6h66s6,0,6-6v-12s0-6-6-6Z" transform="translate(-48 -68.8)"/></g><text class="cls-12" transform="translate(5.94 248.88)">dep<tspan class="cls-14" x="24.75" y="0">r</tspan><tspan x="29.89" y="0">e</tspan><tspan class="cls-16" x="37.76" y="0">s</tspan><tspan class="cls-26" x="43.8" y="0">s</tspan><tspan x="49.84" y="0">ed</tspan></text><g class="cls-8"><path class="cls-10" d="M122.4,574.8a30,30,0,1,0-30-30,30,30,0,0,0,30,30" transform="translate(-48 -68.8)"/></g><text class="cls-12" transform="translate(51.59 480.88)">suicide</text></svg>