<svg id="Layer_1" data-name="Layer 1" xmlns="http://www.w3.org/2000/svg" viewBox="0 0 768 768"><defs><style>.cls-1{fill:#49b8d7;}</style></defs><title>springboard-previewArtboard 1</title><path class="cls-1" d="M683.67,408v25.73h8.56c8.27,0,14.22-5.62,14.22-12.94S700.65,408,692.38,408Zm4.23,3.68h4.59c5.7,0,9.74,4,9.74,9.19s-4,9.19-9.74,9.19H687.9Zm-9.74,22.05V430H663.65v-7.9H676v-3.45H663.65v-7h14.15V408H659.42v25.73ZM655,411.66V408H634.8v3.68h8v22.05H647V411.66Zm-43.55,22.05h4.23v-9.44h5.44l6.5,9.44h5l-7-10a7.75,7.75,0,0,0,5.92-7.64c0-4.74-3.6-8.09-8.93-8.09h-11.1ZM622,411.58c3.23,0,5.22,2,5.22,4.67s-2,4.7-5.22,4.7h-6.36v-9.37ZM596.87,408h-4.23l-10.77,25.73h4.45l2.61-6.43h11.43l2.61,6.43h4.63Zm-2.24,4.85,4.48,11.1h-9Zm-10.73-1.18V408H563.69v3.68h8v22.05h4.23V411.66Zm-30.72,7.06c-3.86-1.36-5.18-2.57-5.18-4.48,0-1.47,1.4-3.12,4.3-3.12A8.25,8.25,0,0,1,558,413.5l2.54-2.76a11.83,11.83,0,0,0-8.34-3.12c-5.18,0-8.56,3.05-8.56,7,0,3.53,2.65,5.81,6.43,7.2,4.89,1.76,6.36,3.16,6.36,5.33,0,1.95-1.73,3.45-4.34,3.45a10.71,10.71,0,0,1-7.2-2.9l-2.54,2.72a13,13,0,0,0,9.44,3.67c5.51,0,8.93-3.27,8.93-7.42s-3.23-6.43-7.57-7.94m-29.51,15h4.12V408h-4.12v19.11L509.78,408h-4.41v25.73h4.15V414.27Zm-37.15-26.09A13.27,13.27,0,0,0,473,420.92a13,13,0,0,0,13.34,13.16,13.25,13.25,0,0,0,13.49-13.3,13,13,0,0,0-13.34-13.16m-.07,22.56a9.34,9.34,0,1,1,9.19-9.33,9.09,9.09,0,0,1-9.19,9.33M463,433.71h4.37V408H463Zm-4.59-22.05V408H438.15v3.68h8v22.05h4.23V411.66ZM429.44,408h-4.23l-10.77,25.73h4.45l2.61-6.43h11.43l2.61,6.43h4.63Zm-2.24,4.85,4.48,11.1h-9Zm-22.34,5.88c-3.86-1.36-5.18-2.57-5.18-4.48,0-1.47,1.4-3.12,4.3-3.12a8.25,8.25,0,0,1,5.73,2.39l2.54-2.76a11.83,11.83,0,0,0-8.34-3.12c-5.18,0-8.56,3.05-8.56,7,0,3.53,2.65,5.81,6.43,7.2,4.89,1.76,6.36,3.16,6.36,5.33,0,1.95-1.73,3.45-4.34,3.45a10.71,10.71,0,0,1-7.2-2.9l-2.54,2.72a13,13,0,0,0,9.44,3.67c5.51,0,8.93-3.27,8.93-7.42s-3.23-6.43-7.57-7.94m-34.32,15h4.23v-9.44h5.44l6.5,9.44h5l-7-10a7.75,7.75,0,0,0,5.92-7.64c0-4.74-3.6-8.09-8.93-8.09h-11.1Zm10.58-22.12c3.23,0,5.22,2,5.22,4.67s-2,4.7-5.22,4.7h-6.36v-9.37ZM365,433.71V430H350.5v-7.9h12.31v-3.45H350.5v-7h14.15V408H346.28v25.73Zm-37.37,0h4.23L342.42,408H337.9l-8,20.32-8-20.32h-4.74Zm-18.56,0h4.12V408h-4.12v19.11L295.19,408h-4.41v25.73h4.15V414.27Zm-37.15-26.09a13.27,13.27,0,0,0-13.49,13.3,13,13,0,0,0,13.34,13.16,13.25,13.25,0,0,0,13.49-13.3,13,13,0,0,0-13.34-13.16m-.07,22.56a9.34,9.34,0,1,1,9.19-9.33,9.09,9.09,0,0,1-9.19,9.33m-39-9.26a13,13,0,0,0,13.34,13.16,12.83,12.83,0,0,0,10.07-4.41L253.3,427a9.3,9.3,0,1,1-7.06-15.47,8.89,8.89,0,0,1,6.69,2.83l3.09-2.68a12.69,12.69,0,0,0-9.7-4,13.27,13.27,0,0,0-13.49,13.3m-14,12.79V430H204.28v-7.9h12.31v-3.45H204.28v-7h14.15V408H200v25.73Zm-30,0h4.23V408h-4.23v10.4H175.61V408h-4.23v25.73h4.23V422.13h13.23ZM167,411.66V408H146.76v3.68h8v22.05H159V411.66Zm-32,0V408H114.72v3.68h8v22.05h4.23V411.66Zm-23.15,22.05V430H97.26v-7.9h12.31v-3.45H97.26v-7h14.15V408H93v25.73ZM87.49,420.29H74.81v3.12h8.34a8,8,0,0,1-8.2,6.84,9.37,9.37,0,0,1,0-18.74,8.93,8.93,0,0,1,6.76,2.94l2.94-3s-3.12-3.86-9.63-3.86a13.25,13.25,0,0,0-13.49,13.3,13,13,0,0,0,13.34,13.16,12.5,12.5,0,0,0,12.64-12.83c0-.48,0-1,0-1"/><path class="cls-1" d="M677.22,322.26a14.58,14.58,0,1,1-14.47,14.58,14.32,14.32,0,0,1,14.47-14.58m29.7,42.44v-75.6H691.26v26.24a21.27,21.27,0,0,0-16.74-7.45c-14.9,0-27.43,12.85-27.43,29.16s12.2,28.73,26.89,28.73a22.62,22.62,0,0,0,18.58-9.4l1.3,8.32ZM607.23,309v55.73h15.66v-23c0-12.53,6.16-17.82,16.42-17.82h3.24l.22-16c-9.72,0-17,4.21-20.74,11.88l-.86-10.8ZM569,355.74c-6.37,0-10.37-3.24-10.37-7.56s4-7.56,10.37-7.56c6.7,0,10.69,3.35,10.69,7.56s-4,7.56-10.69,7.56m-4.1-24.41c-13.39,0-21.92,7.67-21.92,17.5s8,17,21.38,17c7.13,0,13.07-2.16,17.06-5.83l1.19,4.75h12.2V333.17c0-16-9.72-25.27-25.27-25.27-15,0-23.33,7.34-23.33,7.34l6.37,10A23.67,23.67,0,0,1,566.41,321c7.45,0,12.74,4.21,12.74,12v2.38a24.75,24.75,0,0,0-14.26-4m-57.56,20.09a14.58,14.58,0,1,1,14.58-14.58,14.23,14.23,0,0,1-14.58,14.58m.32-43.52c-17.28,0-30.46,12.85-30.46,29.16s12.64,28.73,29.92,28.73,30.46-13,30.46-29.27-12.64-28.62-29.92-28.62M439.4,351.42A14.58,14.58,0,1,1,454,336.84a14.23,14.23,0,0,1-14.58,14.58m-29.59-62.32v75.6h13.07l1.19-7.78a21.86,21.86,0,0,0,18,8.86c15,0,27.54-13,27.54-29.27s-12.31-28.62-27-28.62a21.76,21.76,0,0,0-17.17,8V289.11ZM367.15,321c8.32,0,14.58,5.94,14.58,13.28s-6.26,13.28-14.58,13.28-14.47-5.94-14.47-13.28S358.83,321,367.15,321m-24,42.34-5.72,11.45s10.48,8.32,27.76,8.32c20.2,0,31.64-12.85,31.64-32.29V309H383.78l-1.08,6.59a23.58,23.58,0,0,0-17.82-7.67c-16.42,0-27.86,11.45-27.86,26.24,0,14.26,11.88,25.7,27.32,25.7,7.56,0,13.28-2.81,16.85-6.8v1.19c0,10.26-6.48,15.66-17.28,15.66-11.66,0-20.74-6.59-20.74-6.59M289,364.71V336.3c0-9.94,5.29-14,11.88-14,6.16,0,10.8,4.1,10.8,13.5v28.94H327.3V330.8c0-14.8-9.07-22.9-21-22.9-7.78,0-14.47,3.35-18.36,9.61l-.76-8.53H273.3v55.73Zm-45,0H259.8V309H243.92Zm7.88-80.78a9.67,9.67,0,1,0,0,19.33,9.54,9.54,0,0,0,9.94-9.72c0-5.51-4.21-9.61-9.94-9.61M198.67,309v55.73h15.66v-23c0-12.53,6.16-17.82,16.42-17.82H234l.22-16c-9.72,0-17,4.21-20.74,11.88l-.86-10.8Zm-40.5,42.44a14.58,14.58,0,1,1,14.58-14.58,14.23,14.23,0,0,1-14.58,14.58M128.58,309v73h15.66V358.44a21.49,21.49,0,0,0,16.63,7.34c15,0,27.54-13,27.54-29.27s-12.31-28.62-27-28.62a22.27,22.27,0,0,0-18.47,9.4l-1.3-8.32ZM95.64,319.46C85.06,315.35,82,312.65,82,308.22c0-3.35,3.13-6.8,9.61-6.8,9.4,0,15.66,6.8,15.66,6.8L117,297.75S107.85,288,91.43,288c-15.88,0-26.24,9.18-26.24,21.49,0,10.91,7.56,17.6,18,21.71,13.5,5.4,17.17,8.86,17.17,13.72,0,4.21-3.89,7.45-9.61,7.45-11.66,0-20-8.42-20-8.42l-9.72,10.48S71,365.79,89.92,365.79c16.52,0,27.32-10,27.32-22.68,0-12.31-10.26-19.22-21.6-23.65"/></svg>