<svg id="Layer_1" data-name="Layer 1" xmlns="http://www.w3.org/2000/svg" viewBox="0 0 900 600"><defs><style>.cls-1{fill:#fff;}.cls-2,.cls-24{fill:none;}.cls-2{stroke:#b3b3b3;}.cls-17,.cls-20,.cls-23,.cls-3,.cls-32{isolation:isolate;}.cls-3{font-size:16px;}.cls-3,.cls-32{fill:#4d4d4d;}.cls-27,.cls-3,.cls-32{font-family:Uniform-Medium, Uniform;}.cls-4{letter-spacing:-0.02em;}.cls-5{letter-spacing:-0.01em;}.cls-6{letter-spacing:0em;}.cls-7{letter-spacing:-0.01em;}.cls-8{letter-spacing:-0.02em;}.cls-9{letter-spacing:-0.01em;}.cls-10{letter-spacing:-0.01em;}.cls-11{letter-spacing:0em;}.cls-12{letter-spacing:0em;}.cls-13{letter-spacing:-0.03em;}.cls-14{letter-spacing:0.01em;}.cls-15{letter-spacing:-0.03em;}.cls-16{letter-spacing:-0.01em;}.cls-17,.cls-23{font-size:20px;font-family:UniformExtraCondensed-Medium, Uniform Extra Condensed;}.cls-17,.cls-23,.cls-27{fill:#333;}.cls-17{letter-spacing:0.05em;}.cls-18,.cls-23{letter-spacing:0.05em;}.cls-19{letter-spacing:0.01em;}.cls-21{letter-spacing:0.04em;}.cls-22{letter-spacing:0.05em;}.cls-24{stroke:#666;stroke-miterlimit:10;stroke-width:1.5px;}.cls-25{fill:#666;}.cls-26{fill:#f2f2f2;}.cls-27{font-size:12px;}.cls-28{letter-spacing:-0.02em;}.cls-29{letter-spacing:-0.01em;}.cls-30{letter-spacing:-0.1em;}.cls-31{letter-spacing:0em;}.cls-32{font-size:18px;}.cls-32,.cls-37{letter-spacing:0.05em;}.cls-33{letter-spacing:0.02em;}.cls-34{letter-spacing:0.03em;}.cls-35{letter-spacing:0.05em;}.cls-36{letter-spacing:-0.04em;}</style></defs><title>Artboard 1</title><text></text><rect class="cls-1" x="149.64" y="529.51" width="153.05" height="53.04"/><rect class="cls-2" x="149.64" y="529.51" width="153.05" height="53.04"/><text class="cls-3" transform="translate(167.64 561.11)">video &amp; ph<tspan class="cls-4" x="83.09" y="0">o</tspan><tspan class="cls-5" x="92.82" y="0">t</tspan><tspan class="cls-6" x="99.69" y="0">os</tspan></text><rect class="cls-1" x="579.36" y="367.49" width="147.98" height="53.04"/><rect class="cls-2" x="579.36" y="367.49" width="147.98" height="53.04"/><text class="cls-3" transform="translate(597.36 399.09)">blog / <tspan class="cls-4" x="51.57" y="0">w</tspan><tspan x="63.81" y="0">ebsi</tspan><tspan class="cls-7" x="95.42" y="0">t</tspan><tspan x="102.3" y="0">e</tspan></text><rect class="cls-1" x="352.41" y="226.21" width="78.54" height="53.04"/><rect class="cls-2" x="352.41" y="226.21" width="78.54" height="53.04"/><text class="cls-3" transform="translate(370.41 257.81)">email</text><rect class="cls-1" x="125.2" y="431.77" width="147.18" height="72.24"/><rect class="cls-2" x="125.2" y="431.77" width="147.18" height="72.24"/><text class="cls-3" transform="translate(157.01 463.37)"><tspan class="cls-8">R</tspan><tspan x="10.8" y="0">obo</tspan><tspan class="cls-8" x="41.33" y="0">c</tspan><tspan x="49.68" y="0">all / </tspan><tspan x="-13.81" y="19.2">au</tspan><tspan class="cls-7" x="5.07" y="19.2">t</tspan><tspan x="11.95" y="19.2">o-me</tspan><tspan class="cls-9" x="53.84" y="19.2">s</tspan><tspan class="cls-10" x="61.07" y="19.2">s</tspan><tspan class="cls-11" x="68.22" y="19.2">age</tspan></text><rect class="cls-1" x="587.76" y="165.55" width="133.47" height="72.24"/><rect class="cls-2" x="587.76" y="165.55" width="133.47" height="72.24"/><text class="cls-3" transform="translate(609.07 197.15)">in-per<tspan class="cls-12" x="47.28" y="0">s</tspan><tspan class="cls-11" x="54.51" y="0">on / </tspan><tspan class="cls-8" x="-3.3" y="19.2">f</tspan><tspan x="3.18" y="19.2">a</tspan><tspan class="cls-13" x="12.22" y="19.2">c</tspan><tspan x="20.41" y="19.2">e</tspan><tspan class="cls-14" x="30.09" y="19.2">-</tspan><tspan class="cls-7" x="36.97" y="19.2">t</tspan><tspan x="43.85" y="19.2">o</tspan><tspan class="cls-14" x="53.9" y="19.2">-</tspan><tspan class="cls-4" x="60.78" y="19.2">f</tspan><tspan class="cls-11" x="67.26" y="19.2">a</tspan><tspan class="cls-13" x="76.29" y="19.2">c</tspan><tspan x="84.49" y="19.2">e</tspan></text><rect class="cls-1" x="612.86" y="64.82" width="128.93" height="53.04"/><rect class="cls-2" x="612.86" y="64.82" width="128.93" height="53.04"/><text class="cls-3" transform="translate(630.86 96.42)">Home Visits</text><rect class="cls-1" x="257.91" y="445.39" width="183.92" height="53.04"/><rect class="cls-2" x="257.91" y="445.39" width="183.92" height="53.04"/><text class="cls-3" transform="translate(275.91 476.99)">child <tspan class="cls-15" x="41.52" y="0">c</tspan><tspan x="49.71" y="0">o</tspan><tspan class="cls-16" x="59.76" y="0">n</tspan><tspan class="cls-4" x="69.36" y="0">v</tspan><tspan x="77.52" y="0">er</tspan><tspan class="cls-7" x="93.62" y="0">s</tspan><tspan class="cls-8" x="100.77" y="0">a</tspan><tspan x="109.49" y="0">tions</tspan></text><rect class="cls-1" x="720.84" y="310.07" width="157.47" height="53.04"/><rect class="cls-2" x="720.84" y="310.07" width="157.47" height="53.04"/><text class="cls-3" transform="translate(738.84 341.67)">platform sp<tspan class="cls-15" x="90.06" y="0">r</tspan><tspan class="cls-8" x="96" y="0">a</tspan><tspan class="cls-6" x="104.72" y="0">wl</tspan></text><text class="cls-17" transform="translate(359.24 26.9)">LO<tspan class="cls-18" x="16.5" y="0">TS OF TIME FOR </tspan><tspan class="cls-19" x="130.02" y="0">P</tspan><tspan class="cls-18" x="138.52" y="0">ARENT</tspan></text><g class="cls-20"><text class="cls-17" transform="translate(767.99 263.71)">LO<tspan class="cls-18" x="16.5" y="0">TS OF TIME FOR </tspan><tspan class="cls-18"><tspan x="34.7" y="24">TE</tspan><tspan class="cls-21" x="50.7" y="24">A</tspan><tspan class="cls-22" x="59.2" y="24">CHER</tspan></tspan></text></g><g class="cls-20"><text class="cls-23" transform="translate(370.55 582.73)">LESS TIME FOR <tspan class="cls-19" x="107.4" y="0">P</tspan><tspan x="115.9" y="0">ARENT</tspan></text></g><g class="cls-20"><text class="cls-23" transform="translate(8.3 264.4)">LESS TIME FOR <tspan x="23.39" y="24">TE</tspan><tspan class="cls-21" x="39.39" y="24">A</tspan><tspan class="cls-22" x="47.89" y="24">CHER</tspan></text></g><line class="cls-24" x1="100.59" y1="300" x2="799.41" y2="300"/><polygon class="cls-25" points="90 300 104.92 306.1 101.38 300 104.92 293.9 90 300"/><polygon class="cls-25" points="810 300 795.08 306.1 798.62 300 795.08 293.9 810 300"/><line class="cls-24" x1="450" y1="549.41" x2="450" y2="50.59"/><polygon class="cls-25" points="450 560 456.1 545.08 450 548.62 443.9 545.08 450 560"/><polygon class="cls-25" points="450 40 456.1 54.92 450 51.38 443.9 54.92 450 40"/><rect class="cls-1" x="628.07" y="428.16" width="144.05" height="53.04"/><rect class="cls-2" x="628.07" y="428.16" width="144.05" height="53.04"/><text class="cls-3" transform="translate(646.07 459.76)">Online g<tspan class="cls-13" x="65.65" y="0">r</tspan><tspan x="71.58" y="0">ades</tspan></text><rect class="cls-26" x="19" y="320.96" width="143.86" height="85.04"/><text class="cls-27" transform="translate(37.63 343.16)"><tspan class="cls-7">F</tspan><tspan x="7.2" y="0">ormal edu</tspan><tspan class="cls-28" x="66.66" y="0">ca</tspan><tspan x="79.46" y="0">tion: </tspan><tspan class="cls-8" x="5.02" y="14.4">r</tspan><tspan class="cls-29" x="9.59" y="14.4">e</tspan><tspan x="16.73" y="14.4">ading is </tspan><tspan class="cls-7" x="64.6" y="14.4">e</tspan><tspan x="71.74" y="14.4">asie</tspan><tspan class="cls-30" x="94.41" y="14.4">r</tspan><tspan x="98.02" y="14.4">,</tspan><tspan x="-4.34" y="28.8">I</tspan><tspan class="cls-31" x="-0.64" y="28.8">n</tspan><tspan class="cls-8" x="6.68" y="28.8">f</tspan><tspan x="11.54" y="28.8">ormal edu</tspan><tspan class="cls-8" x="71" y="28.8">ca</tspan><tspan x="83.81" y="28.8">tion: </tspan><tspan x="7.97" y="43.2">talking is </tspan><tspan class="cls-7" x="63.15" y="43.2">e</tspan><tspan x="70.29" y="43.2">asier</tspan></text><rect class="cls-1" x="436.56" y="205.46" width="157.87" height="72.24"/><rect class="cls-2" x="436.56" y="205.46" width="157.87" height="72.24"/><text class="cls-3" transform="translate(454.56 237.06)">S<tspan class="cls-7" x="9.2" y="0">o</tspan><tspan x="19.09" y="0">ft</tspan><tspan class="cls-4" x="31.81" y="0">w</tspan><tspan x="44.05" y="0">a</tspan><tspan class="cls-8" x="53.09" y="0">r</tspan><tspan x="59.18" y="0">e / </tspan><tspan class="cls-4" x="85.33" y="0">w</tspan><tspan x="97.57" y="0">eb </tspan><tspan x="34.26" y="19.2">portals</tspan></text><rect class="cls-1" x="629.15" y="108.84" width="173.69" height="72.24"/><rect class="cls-2" x="629.15" y="108.84" width="173.69" height="72.24"/><text class="cls-3" transform="translate(647.15 140.44)">ELL / <tspan class="cls-13" x="45.74" y="0">c</tspan><tspan x="53.94" y="0">oun</tspan><tspan class="cls-9" x="83.66" y="0">s</tspan><tspan class="cls-6" x="90.89" y="0">elor / </tspan><tspan class="cls-4" x="27.58" y="19.2">o</tspan><tspan class="cls-11" x="37.31" y="19.2">ther </tspan><tspan class="cls-7" x="74.48" y="19.2">s</tspan><tspan x="81.63" y="19.2">t</tspan><tspan class="cls-9" x="88.67" y="19.2">a</tspan><tspan class="cls-6" x="97.63" y="19.2">ff</tspan></text><rect class="cls-1" x="409.16" y="163.27" width="81.68" height="53.04"/><rect class="cls-2" x="409.16" y="163.27" width="81.68" height="53.04"/><text class="cls-3" transform="translate(427.16 194.87)"><tspan class="cls-4">p</tspan><tspan x="10.11" y="0">aper</tspan></text><rect class="cls-1" x="22" y="22" width="279.41" height="76.77"/><rect class="cls-2" x="22" y="22" width="279.41" height="76.77"/><text class="cls-32" transform="translate(58.87 55.3)">TE<tspan class="cls-33" x="24.12" y="0">A</tspan><tspan x="37.26" y="0">CHER </tspan><tspan class="cls-34" x="97.45" y="0">V</tspan><tspan class="cls-35" x="110.59" y="0">S </tspan><tspan class="cls-8" x="127.46" y="0">P</tspan><tspan x="139.34" y="0">ARENT</tspan><tspan class="cls-33"><tspan x="-18.87" y="21.6">C</tspan><tspan class="cls-35" x="-5.61" y="21.6">OMMUNIC</tspan><tspan class="cls-36" x="93.68" y="21.6">A</tspan><tspan class="cls-37" x="105.74" y="21.6">TION MEDIA</tspan></tspan></text><rect class="cls-1" x="566.05" y="242.66" width="93.15" height="53.04"/><rect class="cls-2" x="566.05" y="242.66" width="93.15" height="53.04"/><text class="cls-3" transform="translate(584.05 274.25)">phones</text></svg>