<svg xmlns="http://www.w3.org/2000/svg" viewBox="0 0 1080 792"><defs><style>.cls-1{isolation:isolate;}.cls-2,.cls-4{fill:#ee5d45;}.cls-3,.cls-6{fill:#70b9c4;}.cls-3{mix-blend-mode:multiply;}.cls-4,.cls-6{font-size:60px;font-family:UniformExtraCondensed, Uniform Extra Condensed;}.cls-14,.cls-35,.cls-4,.cls-6{letter-spacing:0.03em;}.cls-5{letter-spacing:0.05em;}.cls-10,.cls-12,.cls-29,.cls-38,.cls-7{font-size:45px;}.cls-10,.cls-12,.cls-13,.cls-18,.cls-21,.cls-26,.cls-27,.cls-29,.cls-35,.cls-37,.cls-38,.cls-39,.cls-7{fill:#fff;font-family:UniformExtraCondensed-Medium, Uniform Extra Condensed;}.cls-11,.cls-7{letter-spacing:0.03em;}.cls-8{letter-spacing:0.03em;}.cls-38,.cls-9{letter-spacing:0.03em;}.cls-10,.cls-31{letter-spacing:0.02em;}.cls-12,.cls-39{letter-spacing:0.03em;}.cls-13,.cls-21,.cls-26,.cls-27,.cls-35,.cls-37{font-size:30px;}.cls-13,.cls-22{letter-spacing:0.03em;}.cls-15{letter-spacing:0.03em;}.cls-16,.cls-26{letter-spacing:0.03em;}.cls-17,.cls-37{letter-spacing:0.03em;}.cls-18{font-size:37.5px;letter-spacing:0.03em;}.cls-19{letter-spacing:0.02em;}.cls-20{letter-spacing:0.03em;}.cls-21{letter-spacing:0em;}.cls-23{letter-spacing:0.02em;}.cls-24,.cls-27{letter-spacing:0.02em;}.cls-25{letter-spacing:0.04em;}.cls-28{letter-spacing:0.03em;}.cls-29{letter-spacing:0.02em;}.cls-30{letter-spacing:0.04em;}.cls-32{letter-spacing:0.03em;}.cls-33{letter-spacing:0.02em;}.cls-34{letter-spacing:0.03em;}.cls-36{letter-spacing:0.02em;}.cls-39{font-size:22.5px;}.cls-40{letter-spacing:0.03em;}.cls-41{letter-spacing:0.03em;}.cls-42{letter-spacing:0.01em;}.cls-43{letter-spacing:0.03em;}</style></defs><title>venn</title><g class="cls-1"><g id="Layer_1" data-name="Layer 1"><circle class="cls-2" cx="379.67" cy="462.82" r="293.94"/><circle class="cls-3" cx="700.33" cy="462.82" r="293.94"/><text class="cls-4" transform="translate(310.56 82.35)">ANXIE<tspan class="cls-5" x="113.04" y="0">T</tspan><tspan x="137.16" y="0">Y</tspan></text><text class="cls-6" transform="translate(564.3 82.35)">DEPRESSION</text><text class="cls-7" transform="translate(252.45 288.86)">t<tspan class="cls-8" x="14.17" y="0">r</tspan><tspan class="cls-9" x="27.31" y="0">embling</tspan></text><text class="cls-10" transform="translate(300.76 688.94)">sw<tspan class="cls-9" x="39.82" y="0">e</tspan><tspan x="58.18" y="0">a</tspan><tspan class="cls-11" x="76.63" y="0">ting</tspan></text><text class="cls-12" transform="translate(720.05 624.21)">ti<tspan class="cls-8" x="24.61" y="0">r</tspan><tspan class="cls-9" x="37.75" y="0">edne</tspan><tspan class="cls-8" x="112.68" y="0">s</tspan><tspan class="cls-9" x="130" y="0">s</tspan></text><text class="cls-13" transform="translate(471.36 337.48)">r<tspan class="cls-14" x="8.76" y="0">estle</tspan><tspan class="cls-15" x="61.35" y="0">s</tspan><tspan class="cls-16" x="72.9" y="0">sne</tspan><tspan class="cls-15" x="109.59" y="0">s</tspan><tspan class="cls-17" x="121.14" y="0">s</tspan></text><text class="cls-18" transform="translate(479.13 625.82)">agi<tspan class="cls-19" x="40.35" y="0">ta</tspan><tspan class="cls-20" x="67.16" y="0">tion</tspan></text><text class="cls-21" transform="translate(442.34 469.25)">ex<tspan class="cls-16" x="22.44" y="0">ce</tspan><tspan class="cls-22" x="46.74" y="0">s</tspan><tspan class="cls-14" x="58.29" y="0">si</tspan><tspan class="cls-23" x="76.95" y="0">v</tspan><tspan class="cls-16" x="87.45" y="0">e </tspan><tspan class="cls-24" x="106.65" y="0">w</tspan><tspan class="cls-17" x="121.8" y="0">or</tspan><tspan class="cls-25" x="143.13" y="0">r</tspan><tspan class="cls-16" x="152.34" y="0">ying</tspan></text><text class="cls-26" transform="translate(771.62 387.3)">Irri<tspan class="cls-24" x="32.19" y="0">t</tspan><tspan x="41.34" y="0">ability</tspan></text><text class="cls-26" transform="translate(679.86 244.83)">frust<tspan class="cls-24" x="51.81" y="0">ra</tspan><tspan class="cls-17" x="72.72" y="0">tion</tspan></text><text class="cls-27" transform="translate(719.2 337.49)">w<tspan class="cls-16" x="15.15" y="0">orthle</tspan><tspan class="cls-15" x="75.93" y="0">s</tspan><tspan class="cls-17" x="87.48" y="0">sne</tspan><tspan class="cls-15" x="124.17" y="0">s</tspan><tspan class="cls-17" x="135.72" y="0">s</tspan></text><text class="cls-26" transform="translate(747.18 439.25)">Lo<tspan class="cls-15" x="22.77" y="0">s</tspan><tspan class="cls-17" x="34.32" y="0">s </tspan><tspan class="cls-15" x="52.98" y="0">o</tspan><tspan x="65.25" y="0">f I</tspan><tspan class="cls-28" x="88.62" y="0">nt</tspan><tspan class="cls-17" x="110.52" y="0">e</tspan><tspan class="cls-28" x="122.76" y="0">r</tspan><tspan class="cls-17" x="131.52" y="0">est</tspan><tspan x="-40.08" y="30">in normal a</tspan><tspan class="cls-15" x="78.48" y="30">c</tspan><tspan class="cls-17" x="90.39" y="30">tivities</tspan></text><text class="cls-29" transform="translate(159.55 421.02)">F<tspan class="cls-11" x="15.52" y="0">eeling ne</tspan><tspan class="cls-30" x="159.25" y="0">r</tspan><tspan class="cls-31" x="173.07" y="0">v</tspan><tspan class="cls-11" x="188.82" y="0">ous</tspan><tspan class="cls-11"><tspan x="0" y="45">or p</tspan><tspan class="cls-31" x="61.51" y="45">ow</tspan><tspan x="102.42" y="45">erle</tspan><tspan class="cls-32" x="162.94" y="45">s</tspan><tspan x="180.27" y="45">s</tspan></tspan></text><text class="cls-18" transform="translate(241.96 625.82)">high heart <tspan class="cls-33" x="141.37" y="0">ra</tspan><tspan class="cls-34" x="167.51" y="0">t</tspan><tspan x="179.13" y="0">e</tspan></text><text class="cls-35" transform="translate(172.34 517.72)">h<tspan class="cls-36" x="12.75" y="0">a</tspan><tspan x="25.05" y="0">ving a sense</tspan><tspan class="cls-22"><tspan x="0" y="30">o</tspan><tspan class="cls-14" x="12.27" y="30">f impending</tspan></tspan><tspan x="0" y="60">danger or panic</tspan></text><text class="cls-18" transform="translate(756.05 524.09)">Thoug<tspan class="cls-34" x="77.74" y="0">h</tspan><tspan class="cls-19" x="93.49" y="0">t</tspan><tspan x="104.92" y="0">s </tspan><tspan class="cls-34" x="128.25" y="0">o</tspan><tspan x="143.58" y="0">f</tspan><tspan x="-57.79" y="37.5">suicide or de</tspan><tspan class="cls-19" x="111.71" y="37.5">a</tspan><tspan x="127.08" y="37.5">th</tspan></text><text class="cls-37" transform="translate(650.22 662.17)">Disturbance in<tspan x="-26.73" y="30">sleep or app</tspan><tspan class="cls-15" x="102.42" y="30">e</tspan><tspan class="cls-16" x="114.51" y="30">ti</tspan><tspan class="cls-28" x="130.92" y="30">t</tspan><tspan x="140.22" y="30">e</tspan></text><text class="cls-38" transform="translate(724.68 288.86)">sadne<tspan class="cls-8" x="93.01" y="0">s</tspan><tspan x="110.34" y="0">s</tspan></text><text class="cls-35" transform="translate(202.5 329.45)">inc<tspan class="cls-22" x="31.77" y="0">r</tspan><tspan x="40.53" y="0">eased</tspan><tspan x="0" y="30">b</tspan><tspan class="cls-22" x="12.72" y="30">r</tspan><tspan x="21.48" y="30">e</tspan><tspan class="cls-36" x="33.72" y="30">a</tspan><tspan x="46.02" y="30">thing </tspan><tspan class="cls-23" x="107.61" y="30">ra</tspan><tspan class="cls-15" x="128.52" y="30">t</tspan><tspan x="137.82" y="30">e</tspan></text><text class="cls-39" transform="translate(471.68 380.92)">t<tspan class="cls-40" x="7.09" y="0">r</tspan><tspan x="13.66" y="0">ouble thinking,</tspan><tspan x="0" y="22.5">conce</tspan><tspan class="cls-40" x="46.15" y="22.5">n</tspan><tspan x="55.6" y="22.5">t</tspan><tspan class="cls-31" x="62.68" y="22.5">ra</tspan><tspan class="cls-41" x="78.37" y="22.5">ting, or</tspan><tspan class="cls-9"><tspan x="0" y="45">making decisions</tspan></tspan></text><text class="cls-39" transform="translate(457.59 511.34)">Un<tspan class="cls-42" x="19.69" y="0">e</tspan><tspan class="cls-9" x="28.3" y="0">xplained p</tspan><tspan class="cls-31" x="109.55" y="0">hy</tspan><tspan class="cls-41" x="126.76" y="0">sical</tspan><tspan x="0" y="22.5">complai</tspan><tspan class="cls-8" x="61.81" y="22.5">n</tspan><tspan class="cls-31" x="71.26" y="22.5">t</tspan><tspan class="cls-9" x="78.12" y="22.5">s, such as</tspan><tspan class="cls-9"><tspan x="0" y="45">headaches or s</tspan><tspan class="cls-43" x="118.95" y="45">t</tspan><tspan x="125.93" y="45">omach</tspan><tspan x="0" y="67.5">aches</tspan></tspan></text></g></g></svg>