<?xml version="1.0" encoding="utf-8"?>
<!-- Generator: Adobe Illustrator 21.1.0, SVG Export Plug-In . SVG Version: 6.00 Build 0)  -->
<svg version="1.1" id="Layer_1" xmlns="http://www.w3.org/2000/svg" xmlns:xlink="http://www.w3.org/1999/xlink" x="0px" y="0px"
	 viewBox="0 0 768 614.4" style="enable-background:new 0 0 768 614.4;" xml:space="preserve">
<style type="text/css">
	.st0{fill:#49B8D7;}
</style>
<title>springboard-previewArtboard 1</title>
<path class="st0" d="M683.7,331.2v25.7h8.6c8.3,0,14.2-5.6,14.2-12.9s-5.8-12.8-14.1-12.8L683.7,331.2L683.7,331.2z M687.9,334.9
	h4.6c5.7,0,9.7,4,9.7,9.2s-4,9.2-9.7,9.2h-4.6V334.9z M678.2,356.9v-3.7h-14.5v-7.9H676v-3.5h-12.3v-7h14.2v-3.6h-18.4v25.7H678.2z
	 M655,334.9v-3.7h-20.2v3.7h8v22h4.2v-22.1h8V334.9z M611.5,356.9h4.2v-9.4h5.4l6.5,9.4h5l-7-10c3.5-0.9,6-4,5.9-7.6
	c0-4.7-3.6-8.1-8.9-8.1h-11.1L611.5,356.9z M622,334.8c3.2,0,5.2,2,5.2,4.7s-2,4.7-5.2,4.7h-6.4v-9.4L622,334.8z M596.9,331.2h-4.2
	l-10.8,25.7h4.5l2.6-6.4h11.4l2.6,6.4h4.6L596.9,331.2z M594.6,336.1l4.5,11.1h-9L594.6,336.1z M583.9,334.9v-3.7h-20.2v3.7h8v22
	h4.2v-22.1L583.9,334.9z M553.2,341.9c-3.9-1.4-5.2-2.6-5.2-4.5c0-1.5,1.4-3.1,4.3-3.1c2.1,0,4.2,0.9,5.7,2.4l2.5-2.8
	c-2.3-2.1-5.3-3.2-8.3-3.1c-5.2,0-8.6,3-8.6,7c0,3.5,2.7,5.8,6.4,7.2c4.9,1.8,6.4,3.2,6.4,5.3c0,2-1.7,3.5-4.3,3.5
	c-2.7,0-5.2-1.1-7.2-2.9l-2.5,2.7c2.5,2.4,5.9,3.8,9.4,3.7c5.5,0,8.9-3.3,8.9-7.4S557.5,343.4,553.2,341.9 M523.6,356.9h4.1v-25.7
	h-4.1v19.1l-13.8-19.1h-4.4v25.7h4.1v-19.5L523.6,356.9z M486.5,330.8c-7.3-0.1-13.4,5.7-13.5,13c0,0.1,0,0.2,0,0.2
	c-0.1,7.2,5.7,13.1,12.8,13.2c0.2,0,0.3,0,0.5,0c7.3,0.1,13.4-5.7,13.5-13c0-0.1,0-0.2,0-0.3c0.1-7.2-5.7-13.1-12.8-13.2
	C486.8,330.8,486.7,330.8,486.5,330.8 M486.4,353.4c-5.2,0.1-9.4-4-9.5-9.2s4-9.4,9.2-9.5s9.4,4,9.5,9.2c0,0.1,0,0.1,0,0.2
	c0.1,5-3.8,9.2-8.8,9.3C486.6,353.4,486.5,353.4,486.4,353.4 M463,356.9h4.4v-25.7H463V356.9z M458.4,334.9v-3.7h-20.3v3.7h8v22h4.2
	v-22.1h8.1V334.9z M429.4,331.2h-4.2l-10.8,25.7h4.5l2.6-6.4h11.4l2.6,6.4h4.6L429.4,331.2z M427.2,336.1l4.5,11.1h-9L427.2,336.1z
	 M404.9,341.9c-3.9-1.4-5.2-2.6-5.2-4.5c0-1.5,1.4-3.1,4.3-3.1c2.1,0,4.2,0.9,5.7,2.4l2.5-2.8c-2.3-2.1-5.3-3.2-8.3-3.1
	c-5.2,0-8.6,3-8.6,7c0,3.5,2.6,5.8,6.4,7.2c4.9,1.8,6.4,3.2,6.4,5.3c0,2-1.7,3.5-4.3,3.5c-2.7,0-5.2-1.1-7.2-2.9l-2.5,2.7
	c2.5,2.4,5.9,3.8,9.4,3.7c5.5,0,8.9-3.3,8.9-7.4S409.2,343.5,404.9,341.9 M370.5,357h4.2v-9.4h5.4l6.5,9.4h5l-7-10
	c3.5-0.9,6-4,5.9-7.6c0-4.7-3.6-8.1-8.9-8.1h-11.1V357z M381.1,334.8c3.2,0,5.2,2,5.2,4.7s-2,4.7-5.2,4.7h-6.4v-9.4L381.1,334.8z
	 M365,356.9v-3.7h-14.5v-7.9h12.3v-3.5h-12.3v-7h14.1v-3.6h-18.4v25.7H365z M327.6,356.9h4.2l10.6-25.7h-4.5l-8,20.3l-8-20.3h-4.7
	L327.6,356.9z M309.1,356.9h4.1v-25.7h-4.1v19.1l-13.9-19.1h-4.4v25.7h4.1v-19.5L309.1,356.9z M271.9,330.8
	c-7.3-0.1-13.4,5.7-13.5,13c0,0.1,0,0.2,0,0.3c-0.1,7.2,5.7,13.1,12.8,13.2c0.2,0,0.3,0,0.5,0c7.3,0.1,13.4-5.7,13.5-13
	c0-0.1,0-0.2,0-0.3c0.1-7.2-5.7-13.1-12.8-13.2C272.3,330.8,272.1,330.8,271.9,330.8 M271.9,353.4c-5.2,0.1-9.4-4-9.5-9.2
	s4-9.4,9.2-9.5s9.4,4,9.5,9.2c0,0.1,0,0.1,0,0.2c0.1,5-3.8,9.2-8.8,9.3C272.1,353.4,272,353.4,271.9,353.4 M232.9,344.1
	c-0.1,7.2,5.7,13.1,12.8,13.2c0.2,0,0.3,0,0.5,0c3.8,0.1,7.5-1.5,10.1-4.4l-3-2.7c-3.4,3.8-9.3,4.2-13.1,0.8
	c-3.8-3.4-4.2-9.3-0.8-13.1c1.7-2,4.2-3.1,6.9-3.1c2.5-0.1,5,1,6.7,2.8l3.1-2.7c-2.5-2.7-6-4.1-9.7-4c-7.3-0.1-13.4,5.7-13.5,13
	C232.8,344,232.8,344.1,232.9,344.1 M218.8,357v-3.8h-14.6v-7.9h12.3v-3.5h-12.3v-7h14.1v-3.6H200v25.7L218.8,357z M188.8,357h4.2
	v-25.8h-4.2v10.4h-13.2v-10.4h-4.2v25.7h4.2v-11.6h13.2V357z M167,334.9v-3.7h-20.2v3.7h8v22h4.2v-22.1h8V334.9z M135,334.9v-3.7
	h-20.3v3.7h8v22h4.2v-22.1h8.1V334.9z M111.8,356.9v-3.7H97.3v-7.9h12.3v-3.5H97.3v-7h14.2v-3.6H93v25.7H111.8z M87.5,343.5H74.8
	v3.1h8.3c-0.6,4-4.1,7-8.2,6.8c-5.2,0-9.4-4.2-9.4-9.4c0-5.2,4.2-9.4,9.4-9.4c2.6,0,5,1,6.8,2.9l2.9-3c0,0-3.1-3.9-9.6-3.9
	c-7.3-0.1-13.4,5.7-13.5,13c0,0.1,0,0.2,0,0.3c-0.1,7.2,5.7,13.1,12.8,13.2c0.2,0,0.3,0,0.5,0c6.9,0.1,12.6-5.5,12.6-12.4
	c0-0.2,0-0.3,0-0.5C87.5,343.9,87.5,343.4,87.5,343.5"/>
<path class="st0" d="M677.2,245.5c8.1-0.1,14.6,6.4,14.7,14.5c0.1,8.1-6.4,14.6-14.5,14.7s-14.6-6.4-14.7-14.5v-0.1
	c-0.1-7.9,6.1-14.4,14.1-14.6C676.9,245.5,677.1,245.5,677.2,245.5 M706.9,287.9v-75.6h-15.7v26.2c-4.2-4.9-10.3-7.6-16.7-7.5
	c-14.9,0-27.4,12.9-27.4,29.2s12.2,28.7,26.9,28.7c7.4,0.1,14.3-3.4,18.6-9.4l1.3,8.3L706.9,287.9L706.9,287.9z M607.2,232.2v55.7
	h15.7v-23c0-12.5,6.2-17.8,16.4-17.8h3.2l0.2-16c-9.7,0-17,4.2-20.7,11.9l-0.9-10.8L607.2,232.2z M569,278.9
	c-6.4,0-10.4-3.2-10.4-7.6s4-7.6,10.4-7.6c6.7,0,10.7,3.4,10.7,7.6S575.7,278.9,569,278.9 M564.9,254.5c-13.4,0-21.9,7.7-21.9,17.5
	s8,17,21.4,17c7.1,0,13.1-2.2,17.1-5.8l1.2,4.8h12.2v-31.6c0-16-9.7-25.3-25.3-25.3c-15,0-23.3,7.3-23.3,7.3l6.4,10
	c4.1-2.8,8.9-4.3,13.8-4.2c7.5,0,12.7,4.2,12.7,12v2.4C574.9,255.8,569.9,254.4,564.9,254.5 M507.3,274.7c-8.1,0-14.6-6.5-14.6-14.6
	c0-8.1,6.5-14.6,14.6-14.6c8.1,0,14.6,6.5,14.6,14.6c0.2,7.9-6,14.4-13.9,14.6C507.8,274.7,507.6,274.7,507.3,274.7 M507.6,231.2
	c-17.3,0-30.5,12.9-30.5,29.2s12.6,28.7,29.9,28.7s30.5-13,30.5-29.3S524.9,231.2,507.6,231.2 M439.4,274.6
	c-8.1,0-14.6-6.5-14.6-14.6c0-8.1,6.5-14.6,14.6-14.6c8,0,14.6,6.5,14.6,14.6c0.2,7.9-6,14.4-13.9,14.6
	C439.9,274.6,439.7,274.6,439.4,274.6 M409.8,212.3v75.6h13.1l1.2-7.8c4.2,5.7,10.9,9,18,8.9c15,0,27.5-13,27.5-29.3
	s-12.3-28.6-27-28.6c-6.6-0.1-13,2.9-17.2,8v-26.8L409.8,212.3z M367.1,244.2c8.3,0,14.6,5.9,14.6,13.3c0,7.4-6.3,13.3-14.6,13.3
	s-14.5-5.9-14.5-13.3C352.6,250.1,358.8,244.2,367.1,244.2 M343.1,286.5l-5.7,11.5c0,0,10.5,8.3,27.8,8.3
	c20.2,0,31.6-12.9,31.6-32.3v-41.8h-13.1l-1.1,6.6c-4.6-5-11.1-7.8-17.8-7.7c-16.4,0-27.9,11.5-27.9,26.2
	c0,14.3,11.9,25.7,27.3,25.7c7.6,0,13.3-2.8,16.9-6.8v1.2c0,10.3-6.5,15.7-17.3,15.7C352.3,293.1,343.2,286.5,343.1,286.5
	 M289,287.9v-28.4c0-9.9,5.3-14,11.9-14c6.2,0,10.8,4.1,10.8,13.5v28.9h15.6V254c0-14.8-9.1-22.9-21-22.9c-7.8,0-14.5,3.4-18.4,9.6
	l-0.8-8.5h-13.9v55.7L289,287.9L289,287.9z M244,287.9h15.8v-55.7h-15.9L244,287.9z M251.9,207.1c-5.3-0.2-9.8,4-10,9.4
	c-0.2,5.3,4,9.8,9.4,10c0.2,0,0.4,0,0.6,0c5.3,0.2,9.7-3.9,9.9-9.1c0-0.2,0-0.4,0-0.6C261.8,211.2,257.6,207.1,251.9,207.1
	 M198.7,232.2v55.7h15.7v-23c0-12.5,6.2-17.8,16.4-17.8h3.2l0.2-16c-9.7,0-17,4.2-20.7,11.9l-0.9-10.8L198.7,232.2z M158.2,274.6
	c-8.1,0-14.6-6.5-14.6-14.6c0-8.1,6.5-14.6,14.6-14.6s14.6,6.5,14.6,14.6l0,0c0.2,7.9-6,14.4-13.9,14.6
	C158.6,274.6,158.4,274.6,158.2,274.6 M128.6,232.2v73h15.7v-23.6c4.2,4.8,10.3,7.5,16.6,7.3c15,0,27.5-13,27.5-29.3
	s-12.3-28.6-27-28.6c-7.3-0.1-14.2,3.4-18.5,9.4l-1.3-8.3L128.6,232.2z M95.6,242.7C85,238.6,82,235.9,82,231.5
	c0-3.4,3.1-6.8,9.6-6.8c9.4,0,15.7,6.8,15.7,6.8L117,221c0,0-9.2-9.8-25.6-9.8c-15.9,0-26.2,9.2-26.2,21.5c0,10.9,7.6,17.6,18,21.7
	c13.5,5.4,17.2,8.9,17.2,13.7c0,4.2-3.9,7.5-9.6,7.5c-11.7,0-20-8.4-20-8.4L61,277.6c0,0,10,11.4,28.9,11.4
	c16.5,0,27.3-10,27.3-22.7C117.2,254,107,247.1,95.6,242.7"/>
</svg>
